<?xml version="1.0" encoding="UTF-8"?>
<svg version="1.1" xmlns="http://www.w3.org/2000/svg" width="1050" height="371">
<path d="M0 0 C1.04671875 -0.020625 2.0934375 -0.04125 3.171875 -0.0625 C9.76248681 -0.09545306 15.16083952 0.6867534 21.25 3.25 C21.25 3.91 21.25 4.57 21.25 5.25 C22.24 5.25 23.23 5.25 24.25 5.25 C24.25 5.91 24.25 6.57 24.25 7.25 C28.11763446 9.12543354 28.11763446 9.12543354 32.25 8.25 C32.25 7.59 32.25 6.93 32.25 6.25 C33.93182391 5.42581505 35.62080374 4.61622649 37.3125 3.8125 C38.25222656 3.36003906 39.19195313 2.90757813 40.16015625 2.44140625 C46.5244661 -0.01259439 53.08446178 0.06778518 59.8125 0.0625 C61.0490332 0.04413086 61.0490332 0.04413086 62.31054688 0.02539062 C67.05146714 0.01402151 70.78207695 0.4804584 75.25 2.25 C76.11625 2.415 76.9825 2.58 77.875 2.75 C80.27937286 3.25618376 82.11097867 4.06165482 84.25 5.25 C84.25 5.91 84.25 6.57 84.25 7.25 C84.806875 7.29125 85.36375 7.3325 85.9375 7.375 C90.94158098 9.26843605 93.34674931 14.13143331 95.5 18.75 C97.80672151 23.96848473 98.37602225 29.17485794 98.3828125 34.84375 C98.38474609 35.93921143 98.38667969 37.03467285 98.38867188 38.16333008 C98.38416016 39.34693115 98.37964844 40.53053223 98.375 41.75 C98.37306641 42.98709717 98.37113281 44.22419434 98.36914062 45.4987793 C98.29443286 62.42112521 97.75732391 79.3361831 97.25 96.25 C87.35 96.25 77.45 96.25 67.25 96.25 C65.92596532 93.60193064 66.15160116 91.65099327 66.18408203 88.6862793 C66.19871994 86.93887703 66.19871994 86.93887703 66.21365356 85.15617371 C66.22822601 83.89162857 66.24279846 82.62708344 66.2578125 81.32421875 C66.27084518 79.34581389 66.28386 77.36740872 66.29582024 75.38899708 C66.3263783 70.5008263 66.36631914 65.61281048 66.42138672 60.72485352 C66.45179039 57.98549139 66.47416906 55.2462872 66.48776245 52.50679016 C66.50092735 49.92465646 66.5260368 47.34255054 66.5642395 44.76066589 C66.56769379 43.58627457 66.57114807 42.41188324 66.57470703 41.2019043 C66.58438507 40.1709111 66.59406311 39.13991791 66.60403442 38.0776825 C66.19159155 34.78349012 65.20084988 32.91301044 63.25 30.25 C60.66879934 28.95939967 58.75580171 29.11727667 55.875 29.125 C54.91851563 29.12242187 53.96203125 29.11984375 52.9765625 29.1171875 C50.56859146 29.23448122 48.55009932 29.56324049 46.25 30.25 C45.01154332 37.08575198 45.02594497 43.90804866 44.93359375 50.83984375 C44.9024221 52.78933678 44.9024221 52.78933678 44.87062073 54.7782135 C44.81575967 58.21236175 44.7661938 61.64656625 44.71777344 65.08081055 C44.6672936 68.59363731 44.61179508 72.10638466 44.55664062 75.61914062 C44.44903058 82.49603175 44.34972858 89.37297202 44.25 96.25 C34.02 96.25 23.79 96.25 13.25 96.25 C13.23582031 91.83238281 13.22164063 87.41476563 13.20703125 82.86328125 C13.18177735 79.33532104 13.15154874 75.80748131 13.11795807 72.27959442 C13.08389053 68.55846502 13.05854001 64.83774843 13.05444336 61.11645508 C13.0501569 57.53045516 13.0216679 53.94538136 12.97656822 50.35967064 C12.96360389 48.99343452 12.95928185 47.6270875 12.96384621 46.2607975 C13.37180548 38.01053115 13.37180548 38.01053115 9.96875 30.90234375 C7.31421428 29.28902678 6.09131791 28.64536955 3.04296875 28.76171875 C1.91665039 28.78588867 1.91665039 28.78588867 0.76757812 28.81054688 C-0.00134766 28.85244141 -0.77027344 28.89433594 -1.5625 28.9375 C-2.74489258 28.97133789 -2.74489258 28.97133789 -3.95117188 29.00585938 C-5.88493929 29.06445839 -7.81772167 29.15413173 -9.75 29.25 C-9.50552124 30.55529663 -9.50552124 30.55529663 -9.25610352 31.88696289 C-8.40251198 37.9072722 -8.62781205 43.99232237 -8.65234375 50.05859375 C-8.65421167 51.39380337 -8.6556338 52.72901369 -8.65663147 54.06422424 C-8.66042723 57.55762668 -8.670232 61.05098673 -8.68133545 64.54437256 C-8.69161319 68.1174664 -8.69619767 71.69056737 -8.70117188 75.26367188 C-8.71132497 82.25915187 -8.73090405 89.25451587 -8.75 96.25 C-24.095 96.745 -24.095 96.745 -39.75 97.25 C-40.08 66.89 -40.41 36.53 -40.75 5.25 C-34.89975534 4.07995107 -29.56734284 3.05112222 -23.71484375 2.46484375 C-20.57149655 2.12113779 -17.52871704 1.42543434 -14.44824219 0.73144531 C-9.66339249 -0.1223118 -4.8485062 0.02353644 0 0 Z " fill="#FCFCFB" transform="translate(491.75,117.75)"/>
<path d="M0 0 C1.02287109 -0.01836914 1.02287109 -0.01836914 2.06640625 -0.03710938 C6.74467797 -0.05047587 10.64289161 0.70941443 15.125 2.1875 C15.97707031 2.45691406 16.82914063 2.72632812 17.70703125 3.00390625 C18.44308594 3.25011719 19.17914062 3.49632813 19.9375 3.75 C21.06091797 4.12318359 21.06091797 4.12318359 22.20703125 4.50390625 C24.125 5.1875 24.125 5.1875 26.125 6.1875 C26.125 6.8475 26.125 7.5075 26.125 8.1875 C26.681875 8.455625 27.23875 8.72375 27.8125 9 C35.16046455 12.77327909 38.00411763 17.11434369 42.125 24.1875 C42.7025 25.156875 43.28 26.12625 43.875 27.125 C47.88906588 36.95946142 48.125 45.28910716 48.125 56.1875 C26.675 56.5175 5.225 56.8475 -16.875 57.1875 C-11.38695957 66.20367385 -11.38695957 66.20367385 -2.875 71.1875 C7.32049745 73.16082209 17.07040519 71.30135945 26 66 C29.125 64.1875 29.125 64.1875 32.125 64.1875 C33.75412132 67.24782459 35.377557 70.31113037 37 73.375 C37.46019531 74.23931641 37.92039062 75.10363281 38.39453125 75.99414062 C38.83925781 76.83525391 39.28398438 77.67636719 39.7421875 78.54296875 C40.15065918 79.31278076 40.55913086 80.08259277 40.97998047 80.87573242 C42.16576321 83.26979997 43.16511256 85.69526212 44.125 88.1875 C27.68798444 96.7814726 13.55540674 99.73385593 -4.875 99.1875 C-5.76703125 99.16945313 -6.6590625 99.15140625 -7.578125 99.1328125 C-19.0383182 98.43200932 -30.37632695 91.12524408 -38.125 83 C-42.20894809 78.15436318 -44.62057828 73.0713808 -46.875 67.1875 C-47.27976562 66.23875 -47.68453125 65.29 -48.1015625 64.3125 C-51.81325447 54.81864843 -50.98625597 46.00942996 -48.875 36.1875 C-48.215 36.1875 -47.555 36.1875 -46.875 36.1875 C-47.37 34.7025 -47.37 34.7025 -47.875 33.1875 C-43.43687537 21.26898789 -36.10549507 11.31177847 -24.875 5.1875 C-16.6307661 1.80551377 -8.90314064 0.00832069 0 0 Z M-8.96484375 27.16796875 C-12.9881147 29.79627895 -15.23567698 32.57690401 -16.875 37.1875 C-16.545 37.8475 -16.215 38.5075 -15.875 39.1875 C-4.985 39.1875 5.905 39.1875 17.125 39.1875 C14.85878114 32.38884343 13.01090757 29.88509269 6.9375 26.3125 C1.39687882 24.6775626 -3.65751645 24.67798903 -8.96484375 27.16796875 Z " fill="#FBFBFB" transform="translate(747.875,117.8125)"/>
<path d="M0 0 C1.10794922 -0.01836914 1.10794922 -0.01836914 2.23828125 -0.03710938 C8.9233194 -0.05479466 14.60544954 1.57150327 20.75 4.1875 C21.55179688 4.52007812 22.35359375 4.85265625 23.1796875 5.1953125 C29.61897251 8.13722226 33.47876499 11.59939629 37.75 17.1875 C38.8328125 18.425 38.8328125 18.425 39.9375 19.6875 C48.03770925 30.86020242 48.75 42.71069348 48.75 56.1875 C27.3 56.5175 5.85 56.8475 -16.25 57.1875 C-14.93 59.4975 -13.61 61.8075 -12.25 64.1875 C-12.25 64.8475 -12.25 65.5075 -12.25 66.1875 C-11.71375 66.455625 -11.1775 66.72375 -10.625 67 C-8.89094566 67.86702717 -7.18564298 68.79224831 -5.5 69.75 C4.16537227 74.0250685 13.28156651 71.60520343 22.75 68.1875 C24.75 67.52083333 26.75 66.85416667 28.75 66.1875 C28.75 65.5275 28.75 64.8675 28.75 64.1875 C30.07 64.1875 31.39 64.1875 32.75 64.1875 C36.75 72.1875 40.75 80.1875 44.75 88.1875 C24.86922689 97.98032346 4.03889619 103.16645692 -17.7578125 96.41015625 C-28.62775759 92.53753055 -38.16812065 84.47005893 -43.82421875 74.37890625 C-47.60568575 66.39340143 -48.45383781 58.97526582 -48.9375 50.25 C-48.99744141 49.38181641 -49.05738281 48.51363281 -49.11914062 47.61914062 C-49.82474878 34.83120109 -43.7776032 23.17095591 -35.6484375 13.515625 C-28.73444861 6.80432633 -20.74507107 2.56581677 -11.25 1.1875 C-7.47611722 -0.07046093 -3.93107151 0.00335989 0 0 Z M-12.25 30.1875 C-15.62635485 34.33610932 -15.62635485 34.33610932 -17.25 39.1875 C-5.7 39.1875 5.85 39.1875 17.75 39.1875 C13.45259726 30.22644956 13.45259726 30.22644956 5.4375 25.3125 C-1.43330601 24.99292763 -6.90966344 25.45401986 -12.25 30.1875 Z " fill="#FBFBFA" transform="translate(645.25,117.8125)"/>
<path d="M0 0 C0.75539063 0.33902344 1.51078125 0.67804688 2.2890625 1.02734375 C9.71950728 4.71771516 15.84990559 10.81447819 19.0625 18.5625 C21.46720235 27.37974195 21.13612389 36.59313096 21.09765625 45.6640625 C21.0962413 46.93728363 21.09482635 48.21050476 21.09336853 49.52230835 C21.08875005 52.87264978 21.07979885 56.22292027 21.06866455 59.57324219 C21.0583512 63.00585321 21.05384986 66.43847163 21.04882812 69.87109375 C21.03785054 76.5807484 21.02115135 83.29037012 21 90 C2.61107292 96.46647254 -30.45559146 100.45112536 -48.86328125 92.546875 C-50.00152344 91.95390625 -51.13976562 91.3609375 -52.3125 90.75 C-53.46363281 90.16734375 -54.61476563 89.5846875 -55.80078125 88.984375 C-61.22392092 85.62057164 -65.85196868 81.12188926 -68 75 C-68.64142764 70.67036344 -68.88929324 66.37291696 -69 62 C-69.02835937 61.1028125 -69.05671875 60.205625 -69.0859375 59.28125 C-68.89185426 54.12922226 -65.46936853 49.54235392 -62.10546875 45.8046875 C-50.61544121 35.95609247 -35.61304668 34.17154381 -21 35 C-19.47705471 35.16949309 -17.95578 35.35533792 -16.4375 35.5625 C-13.14687006 36.30533512 -13.14687006 36.30533512 -11 35 C-11.37338304 30.90156878 -11.37338304 30.90156878 -13.28125 27.375 C-20.04372428 21.96502058 -32.79116084 23.19070294 -41 24 C-45.83546801 24.79798328 -50.58113629 25.93196444 -55.33203125 27.125 C-59 28 -59 28 -62 28 C-60.86575207 23.03694563 -59.70483867 18.08171249 -58.50830078 13.13330078 C-58.07900196 11.33156537 -57.67526409 9.52376812 -57.27734375 7.71484375 C-56.68896711 5.32258184 -56.11307537 3.19685928 -55 1 C-51.09442572 -1.32474659 -46.57312401 -1.3599533 -42.08984375 -1.78515625 C-39.92065294 -1.97478547 -39.92065294 -1.97478547 -37.5 -2.5 C-25.62832689 -4.87433462 -11.17123742 -5.27653309 0 0 Z M-35 57 C-37.24510084 59.61928432 -36.99885603 61.06520638 -36.9375 64.5625 C-36.32776329 68.09077242 -36.32776329 68.09077242 -33.75 69.875 C-28.43283801 72.05020263 -23.36980824 72.12800044 -17.6875 72.0625 C-13.8821875 72.0315625 -13.8821875 72.0315625 -10 72 C-10 66.39 -10 60.78 -10 55 C-18.10038807 52.97490298 -27.74398648 52.38253685 -35 57 Z " fill="#FBFBFA" transform="translate(423,122)"/>
<path d="M0 0 C0.87140625 -0.00128906 1.7428125 -0.00257812 2.640625 -0.00390625 C3.54296875 -0.00003906 4.4453125 0.00382812 5.375 0.0078125 C6.27734375 0.00394531 7.1796875 0.00007813 8.109375 -0.00390625 C9.41648437 -0.00197266 9.41648437 -0.00197266 10.75 0 C11.54148437 0.00112793 12.33296875 0.00225586 13.1484375 0.00341797 C15.35485396 0.13164173 17.24424442 0.57058944 19.375 1.1328125 C20.57125 1.2359375 21.7675 1.3390625 23 1.4453125 C30.26487583 2.29920649 36.96464763 5.75894283 43.375 9.1328125 C41.92384678 13.71169402 40.16918096 18.10930685 38.25 22.5078125 C37.83427734 23.46880859 37.83427734 23.46880859 37.41015625 24.44921875 C36.73399615 26.01138175 36.05481293 27.57223565 35.375 29.1328125 C31.4796947 28.54537993 27.83151477 27.6993806 24.0625 26.5703125 C18.73191537 25.20246437 13.72050317 24.83475569 8.25 24.8203125 C7.50322998 24.81507568 6.75645996 24.80983887 5.98706055 24.80444336 C1.71808911 24.72909527 1.71808911 24.72909527 -1.625 27.1328125 C-1.625 28.4528125 -1.625 29.7728125 -1.625 31.1328125 C6.05503002 33.96307951 6.05503002 33.96307951 13.8125 36.5703125 C26.88732011 40.92858587 38.02905251 45.88956668 45.375 58.1328125 C47.65298719 65.70489281 46.89127955 76.16428916 43.25 83.1953125 C37.65725194 91.67207024 30.04371139 95.65832355 20.265625 97.8203125 C12.92125355 99.0853717 5.80902626 99.39865252 -1.625 99.1328125 C-2.64464844 99.13796875 -3.66429687 99.143125 -4.71484375 99.1484375 C-16.28004834 98.87340291 -26.7947346 94.90913569 -37.625 91.1328125 C-36.7379779 86.3611018 -35.29396606 81.9518023 -33.6875 77.3828125 C-33.42259766 76.60292969 -33.15769531 75.82304687 -32.88476562 75.01953125 C-30.86367455 69.25214978 -30.86367455 69.25214978 -28.625 68.1328125 C-26.84765625 68.83984375 -26.84765625 68.83984375 -24.6875 69.9453125 C-19.45450341 72.39695872 -14.29822162 73.26463768 -8.625 74.1328125 C-7.39136719 74.39964844 -7.39136719 74.39964844 -6.1328125 74.671875 C0.87195472 75.95935558 7.68984629 75.50975604 14.375 73.1328125 C14.705 71.4828125 15.035 69.8328125 15.375 68.1328125 C12.38776346 65.63310973 9.83731153 64.48539782 6.0859375 63.484375 C4.54873047 63.05898437 4.54873047 63.05898437 2.98046875 62.625 C0.85064078 62.05326867 -1.27955993 61.48292382 -3.41015625 60.9140625 C-15.06444929 57.68403372 -25.08259594 53.70784693 -31.609375 43.1328125 C-35.23379155 35.99549991 -34.77872082 26.25594591 -32.671875 18.7265625 C-29.22141138 10.87378323 -24.35945494 6.68737051 -16.625 3.1328125 C-13.91209917 2.17584915 -11.47882185 1.633483 -8.625 1.1328125 C-7.66787109 0.87008545 -7.66787109 0.87008545 -6.69140625 0.60205078 C-4.40210423 0.08219746 -2.34654635 0.00334402 0 0 Z " fill="#FBFBFA" transform="translate(303.625,117.8671875)"/>
<path d="M0 0 C1.81467773 0.061875 1.81467773 0.061875 3.66601562 0.125 C4.92736328 0.18429688 6.18871094 0.24359375 7.48828125 0.3046875 C8.73029297 0.34078125 9.97230469 0.376875 11.25195312 0.4140625 C21.76871387 0.83763103 30.9470856 2.30129271 38.65234375 10.0390625 C44.0228802 15.91792133 45.90499052 20.30222859 46.5546875 28.19140625 C46.69723049 30.2508861 46.69723049 30.2508861 47.80078125 32.1796875 C48.13078125 30.5296875 48.46078125 28.8796875 48.80078125 27.1796875 C49.46078125 27.1796875 50.12078125 27.1796875 50.80078125 27.1796875 C50.80078125 26.1896875 50.80078125 25.1996875 50.80078125 24.1796875 C52.375 22.64453125 52.375 22.64453125 54.48828125 21.1171875 C55.51501953 20.35728516 55.51501953 20.35728516 56.5625 19.58203125 C63.30202057 15.3595393 70.03032102 15.44298472 77.80078125 16.1796875 C81.93611307 17.50399316 85.19763001 19.77758667 88.80078125 22.1796875 C88.80078125 22.8396875 88.80078125 23.4996875 88.80078125 24.1796875 C89.46078125 24.1796875 90.12078125 24.1796875 90.80078125 24.1796875 C94.36790684 29.76301452 94.76004348 35.63109058 94.80078125 42.1796875 C92.83255239 44.14791636 89.45269416 43.84217131 86.80078125 44.1796875 C87.92266966 47.26488061 89.26242755 50.04774399 90.92578125 52.8671875 C92.80078125 56.1796875 92.80078125 56.1796875 92.80078125 58.1796875 C80.9089764 63.23252948 71.08024137 64.94700731 58.80078125 60.1796875 C53.34244585 57.39902607 50.32278971 53.67296908 47.80078125 48.1796875 C47.22353447 45.80706686 47.00041991 43.62526103 46.80078125 41.1796875 C46.47078125 40.8496875 46.14078125 40.5196875 45.80078125 40.1796875 C45.44886719 40.97632813 45.09695313 41.77296875 44.734375 42.59375 C40.3906778 51.91625418 36.77466488 56.92281573 27.01766968 60.52003479 C23.53679526 61.55579654 20.19400906 61.65854796 16.58203125 61.69140625 C15.8386853 61.70935745 15.09533936 61.72730865 14.32946777 61.74580383 C11.98662771 61.79940215 9.6439852 61.8336373 7.30078125 61.8671875 C5.69919153 61.90040542 4.09762774 61.93489913 2.49609375 61.97070312 C-1.40219986 62.05509816 -5.30044006 62.12214682 -9.19921875 62.1796875 C-9.19699814 61.49952576 -9.19477753 60.81936401 -9.19248962 60.11859131 C-9.17038371 53.04602584 -9.1552899 45.97347018 -9.14428711 38.90087891 C-9.13925518 36.26057537 -9.13242904 33.62027463 -9.1237793 30.97998047 C-9.11166396 27.18716748 -9.10597905 23.3943913 -9.1015625 19.6015625 C-9.09640121 18.41914978 -9.09123993 17.23673706 -9.08592224 16.01849365 C-9.08584671 14.91765442 -9.08577118 13.81681519 -9.08569336 12.68261719 C-9.08347275 11.71443054 -9.08125214 10.7462439 -9.07896423 9.74871826 C-9.18873013 7.40375875 -9.53182841 5.42199341 -10.19921875 3.1796875 C-6.81002902 0.05065208 -4.54315507 -0.15980779 0 0 Z M8.80078125 17.1796875 C7.41769344 19.94586313 7.68867929 22.1898675 7.703125 25.28125 C7.70634766 26.49296875 7.70957031 27.7046875 7.71289062 28.953125 C7.72126953 30.22414062 7.72964844 31.49515625 7.73828125 32.8046875 C7.74279297 34.0834375 7.74730469 35.3621875 7.75195312 36.6796875 C7.76376922 39.84640042 7.7802431 43.01302106 7.80078125 46.1796875 C9.38129258 46.22049439 10.96211315 46.24942016 12.54296875 46.2734375 C13.86337158 46.29954102 13.86337158 46.29954102 15.21044922 46.32617188 C18.95614139 46.11435139 21.49698445 44.90340757 24.80078125 43.1796875 C24.80078125 42.5196875 24.80078125 41.8596875 24.80078125 41.1796875 C25.46078125 41.1796875 26.12078125 41.1796875 26.80078125 41.1796875 C28.93539707 35.84314795 29.86913197 30.7790973 28.21875 25.21875 C26.87200913 22.3038862 25.62580117 20.62882962 22.77734375 19.078125 C18.04604336 17.35031223 13.80343963 16.86036888 8.80078125 17.1796875 Z M68.80078125 29.1796875 C68.14078125 29.8396875 67.48078125 30.4996875 66.80078125 31.1796875 C67.13078125 32.1696875 67.46078125 33.1596875 67.80078125 34.1796875 C70.77078125 34.1796875 73.74078125 34.1796875 76.80078125 34.1796875 C75.3394717 30.12298324 75.3394717 30.12298324 72.80078125 29.4296875 C70.80594936 29.13834259 70.80594936 29.13834259 68.80078125 29.1796875 Z M65.80078125 31.1796875 C66.80078125 33.1796875 66.80078125 33.1796875 66.80078125 33.1796875 Z M65.80078125 43.1796875 C66.55228148 46.45742254 66.55228148 46.45742254 69.80078125 48.1796875 C71.85787721 48.42024218 71.85787721 48.42024218 73.98828125 48.3046875 C75.24640625 48.2634375 76.50453125 48.2221875 77.80078125 48.1796875 C78.46078125 46.8596875 79.12078125 45.5396875 79.80078125 44.1796875 C76.65147232 43.12991786 74.41263669 43.07837155 71.11328125 43.1171875 C70.11941406 43.12621094 69.12554688 43.13523437 68.1015625 43.14453125 C67.34230469 43.15613281 66.58304688 43.16773438 65.80078125 43.1796875 Z " fill="#FBFBFA" transform="translate(877.19921875,217.8203125)"/>
<path d="M0 0 C0.83354507 0.00141495 1.66709015 0.0028299 2.52589417 0.00428772 C5.16443611 0.00984457 7.80289034 0.02238885 10.44140625 0.03515625 C12.24023314 0.04017683 14.03906138 0.04473876 15.83789062 0.04882812 C20.22659583 0.05979982 24.61523621 0.07703429 29.00390625 0.09765625 C30.37114239 2.83212854 30.03403437 4.89205259 29.91796875 7.9453125 C29.87414062 9.10740234 29.8303125 10.26949219 29.78515625 11.46679688 C29.73359375 12.68560547 29.68203125 13.90441406 29.62890625 15.16015625 C29.58507812 16.38283203 29.54125 17.60550781 29.49609375 18.86523438 C29.13212795 27.96943455 29.13212795 27.96943455 28.00390625 29.09765625 C23.70321955 29.48302092 19.38088279 29.56799921 15.06640625 29.72265625 C13.23819336 29.8 13.23819336 29.8 11.37304688 29.87890625 C10.21095703 29.92273438 9.04886719 29.9665625 7.8515625 30.01171875 C6.77914307 30.05248535 5.70672363 30.09325195 4.60180664 30.13525391 C2.00390625 30.09765625 2.00390625 30.09765625 0.00390625 29.09765625 C0.00390625 50.21765625 0.00390625 71.33765625 0.00390625 93.09765625 C-9.89609375 93.09765625 -19.79609375 93.09765625 -29.99609375 93.09765625 C-31.25540081 89.31973506 -31.12744921 85.79715178 -31.10961914 81.86254883 C-31.10976517 81.02330368 -31.10991119 80.18405853 -31.11006165 79.31938171 C-31.10936462 76.54362408 -31.10158204 73.76793343 -31.09375 70.9921875 C-31.09188507 69.06833432 -31.09046152 67.14448066 -31.08946228 65.22062683 C-31.08564299 60.15551443 -31.07581769 55.09043067 -31.0647583 50.02532959 C-31.05453156 44.85738513 -31.04996195 39.68943604 -31.04492188 34.52148438 C-31.03419492 24.38019574 -31.01712552 14.23892838 -30.99609375 4.09765625 C-27.90572867 3.3106154 -24.82236873 2.66592103 -21.68359375 2.09765625 C-20.77996094 1.93265625 -19.87632812 1.76765625 -18.9453125 1.59765625 C-12.54907573 0.51326114 -6.47358157 -0.04202373 0 0 Z " fill="#FBFBFB" transform="translate(832.99609375,121.90234375)"/>
<path d="M0 0 C2.9375 2 2.9375 2 5 5 C5.85432227 12.35712477 3.43756293 17.84573103 0.625 24.5625 C-0.38168912 27.04319052 -1.38548739 29.52492566 -2.38671875 32.0078125 C-2.80136131 33.0303437 -2.80136131 33.0303437 -3.22438049 34.0735321 C-6.94751663 43.28357895 -10.46843975 52.57213523 -14.01031494 61.85299683 C-15.15630477 64.85576113 -16.30416334 67.85780396 -17.45263672 70.85961914 C-20.30511182 78.31723132 -23.15549422 85.77562603 -25.9921875 93.23925781 C-30.74505934 105.74291441 -35.55336537 118.22444117 -40.39160156 130.6953125 C-41.63191306 133.89282179 -42.87069284 137.09092172 -44.109375 140.2890625 C-46.05510969 145.30984727 -48.00655587 150.3283691 -49.96398926 155.34460449 C-50.62452179 157.0376131 -51.28405196 158.73101337 -51.94226074 160.42492676 C-52.75628234 162.51693837 -53.57615253 164.60653783 -54.3984375 166.6953125 C-54.83591309 167.81180176 -55.27338867 168.92829102 -55.72412109 170.07861328 C-58.95562921 177.4778146 -58.95562921 177.4778146 -62 179 C-66.52214522 179.61110071 -69.87513212 179.83025963 -73.625 177.0625 C-76.35132067 170.99024032 -74.13544041 164.9494793 -71.8828125 159.015625 C-70.97394131 156.75620546 -70.05403761 154.50120248 -69.125 152.25 C-68.37132416 150.3800911 -67.6176906 148.51016385 -66.86654663 146.63923645 C-66.34888421 145.35017055 -65.83001255 144.06158962 -65.30996704 142.77348328 C-62.64424733 136.1589746 -60.13112948 129.48891 -57.625 122.8125 C-53.0666458 110.71504302 -48.36243641 98.67975123 -43.59033203 86.6652832 C-39.94795132 77.48446743 -36.44295701 68.25725881 -33 59 C-30.54506424 52.40600598 -28.08397097 45.81436576 -25.61376953 39.22607422 C-24.86890513 37.23574168 -24.12640589 35.24452246 -23.38623047 33.25244141 C-10.5513517 -1.273439 -10.5513517 -1.273439 0 0 Z " fill="#455775" transform="translate(166,82)"/>
<path d="M0 0 C2.28499722 1.51561841 4.28908345 3.00049233 6.375 4.75 C6.97368896 5.235896 7.57237793 5.72179199 8.18920898 6.22241211 C10.1348104 7.80464053 12.06721717 9.40215016 14 11 C16.00888465 12.64059732 18.02104234 14.2771099 20.03369141 15.91308594 C21.39255356 17.01783597 22.75029199 18.12396956 24.10693359 19.23144531 C29.208761 23.38830735 34.40255082 27.40144596 39.63671875 31.390625 C44.26062151 34.9472592 48.76421686 38.65440588 53.26953125 42.359375 C57.23318539 45.60827183 61.26581706 48.71290954 65.42260742 51.71191406 C68.04907631 53.85666717 68.03309625 55.24408485 68.5 58.6875 C68.44081099 62.33091266 67.60221326 63.96999824 65.0625 66.5625 C63.73507121 67.7392048 62.37940689 68.8846803 61 70 C60.34773438 70.52980469 59.69546875 71.05960937 59.0234375 71.60546875 C56.70442286 73.43375557 54.35190957 75.21422617 52 77 C49.78509303 78.72081779 47.57966244 80.45358508 45.375 82.1875 C44.78130615 82.65381836 44.1876123 83.12013672 43.57592773 83.60058594 C39.1985033 87.04377906 34.84509444 90.51613613 30.5 94 C-0.40427953 118.77244615 -0.40427953 118.77244615 -8 118 C-10.9375 115.9375 -10.9375 115.9375 -13 113 C-13.63093128 109.07420537 -13.5518949 106.95981723 -11.5625 103.5 C-7.95653597 99.98198631 -4.01458073 97.03527502 0 94 C2.2365162 92.25931853 4.46189351 90.50459818 6.6875 88.75 C7.90091926 87.7954173 9.11446252 86.8409922 10.328125 85.88671875 C11.24174805 85.16814697 11.24174805 85.16814697 12.17382812 84.43505859 C13.94277669 83.04496773 15.71328149 81.65688783 17.484375 80.26953125 C18.63542104 79.36719308 19.78646272 78.46484934 20.9375 77.5625 C21.50331787 77.11962646 22.06913574 76.67675293 22.65209961 76.22045898 C25.83833824 73.72034915 29.00142691 71.19480777 32.14453125 68.640625 C32.82974854 68.08560303 33.51496582 67.53058105 34.22094727 66.95874023 C35.55165487 65.87909141 36.87909394 64.79539878 38.20288086 63.70727539 C42.77767225 60 42.77767225 60 45 60 C40.42937249 55.12466399 35.24221836 51.12718225 30 47 C28.4992539 45.79259345 26.9992618 44.58424915 25.5 43.375 C20.70390267 39.53508663 15.85285422 35.7676545 11 32 C8.68549913 30.1994891 6.37128093 28.39861548 4.05712891 26.59765625 C2.30589271 25.23756965 0.550278 23.88346709 -1.20703125 22.53125 C-12.43274024 13.77957283 -12.43274024 13.77957283 -13.625 7.9375 C-12.79188716 4.02186963 -11.03093154 2.52577629 -8 0 C-4.99006119 -1.5049694 -3.2267943 -0.84712977 0 0 Z " fill="#4F607B" transform="translate(178,113)"/>
<path d="M0 0 C2.90398503 2.11912421 3.84245093 3.50634623 4.9375 6.9375 C5.01463243 10.71698889 4.16616984 11.93510012 2 15 C-0.42578125 17.2890625 -0.42578125 17.2890625 -3.3125 19.625 C-3.83593994 20.05103516 -4.35937988 20.47707031 -4.89868164 20.91601562 C-6.5912733 22.28745655 -8.29395483 23.64534061 -10 25 C-10.56750977 25.45213867 -11.13501953 25.90427734 -11.71972656 26.37011719 C-18.95088065 32.11984638 -26.27123092 37.75122771 -33.609375 43.36328125 C-36.12737437 45.30580222 -38.60802275 47.28991723 -41.078125 49.29296875 C-41.76205322 49.84670166 -42.44598145 50.40043457 -43.15063477 50.97094727 C-44.48798261 52.0569513 -45.82192899 53.14716021 -47.15209961 54.24194336 C-51.78029994 58 -51.78029994 58 -54 58 C-54 58.66 -54 59.32 -54 60 C-53.17435547 60.37511719 -53.17435547 60.37511719 -52.33203125 60.7578125 C-43.11862486 65.66545611 -34.91775017 73.41964707 -26.8046875 79.94921875 C-23.14365585 82.89282289 -19.45034218 85.79357722 -15.75 88.6875 C-11.39763212 92.10153019 -7.05688579 95.52869491 -2.75 99 C-1.87859375 99.70125 -1.0071875 100.4025 -0.109375 101.125 C2.85470524 103.75973799 3.92396828 105.41346956 4.4375 109.375 C4 113 4 113 1.75 115.875 C-2.29411765 119 -2.29411765 119 -5 119 C-10.22545165 116.79011736 -14.20028398 113.60536501 -18.5 110 C-19.92370439 108.82458177 -21.34819773 107.65011855 -22.7734375 106.4765625 C-23.48338867 105.89036133 -24.19333984 105.30416016 -24.92480469 104.70019531 C-27.95794088 102.21516467 -31.03564009 99.78955092 -34.125 97.375 C-34.69412109 96.92962891 -35.26324219 96.48425781 -35.84960938 96.02539062 C-36.99350534 95.13078867 -38.13770945 94.23658058 -39.28222656 93.34277344 C-42.7724064 90.61452029 -46.25290927 87.87392572 -49.73510742 85.13549805 C-52.73512979 82.77704292 -55.73806768 80.42246 -58.74609375 78.07421875 C-76.66215857 64.07531163 -76.66215857 64.07531163 -77.4375 59.3125 C-76.6395631 53.27097774 -71.76085454 49.45103272 -67.1171875 45.82421875 C-65.70837728 44.77157957 -64.29411867 43.7262 -62.875 42.6875 C-61.36041189 41.55547934 -59.84739948 40.42134752 -58.3359375 39.28515625 C-57.59827148 38.73102051 -56.86060547 38.17688477 -56.10058594 37.60595703 C-52.16272099 34.59534852 -48.40015656 31.38507807 -44.61328125 28.1875 C-41.6459959 25.7036737 -38.60864904 23.33177253 -35.5390625 20.9765625 C-33.49582476 19.38598051 -31.47450553 17.77604515 -29.4609375 16.1484375 C-7.17126708 -1.86452944 -7.17126708 -1.86452944 0 0 Z " fill="#637289" transform="translate(94,113)"/>
<path d="M0 0 C0.69738281 0.05671875 1.39476562 0.1134375 2.11328125 0.171875 C3.82639312 0.31267872 5.53834611 0.46745972 7.25 0.625 C7.72959778 2.85407395 8.2086608 5.08326297 8.6875 7.3125 C8.95433594 8.55386719 9.22117187 9.79523438 9.49609375 11.07421875 C9.74488281 12.24597656 9.99367188 13.41773438 10.25 14.625 C10.54583984 15.96498047 10.54583984 15.96498047 10.84765625 17.33203125 C11.25 19.625 11.25 19.625 11.25 23.625 C11.91 23.625 12.57 23.625 13.25 23.625 C13.25 25.275 13.25 26.925 13.25 28.625 C13.58 25.985 13.91 23.345 14.25 20.625 C14.91 20.625 15.57 20.625 16.25 20.625 C16.064375 20.068125 15.87875 19.51125 15.6875 18.9375 C15.17448835 16.225867 15.5859276 14.28128961 16.25 11.625 C16.91 11.625 17.57 11.625 18.25 11.625 C18.04375 11.068125 17.8375 10.51125 17.625 9.9375 C17.12764008 6.87044717 17.7274569 5.30757593 19.25 2.625 C21.3125 1.9375 21.3125 1.9375 23.25 1.625 C23.58 0.965 23.91 0.305 24.25 -0.375 C26.20803507 -0.42889087 28.16648909 -0.46774217 30.125 -0.5 C31.76082031 -0.53480469 31.76082031 -0.53480469 33.4296875 -0.5703125 C36.25 -0.375 36.25 -0.375 38.25 1.625 C36.44607734 7.73380848 34.63013828 13.83894859 32.80566406 19.94165039 C32.18600352 22.01959393 31.56913335 24.09837165 30.95507812 26.17797852 C30.07367655 29.16123852 29.18239342 32.14138753 28.2890625 35.12109375 C28.01502594 36.05650497 27.74098938 36.9919162 27.45864868 37.95567322 C27.19852997 38.81649002 26.93841125 39.67730682 26.67041016 40.56420898 C26.33065659 41.70671364 26.33065659 41.70671364 25.98403931 42.87229919 C25.25 44.625 25.25 44.625 23.25 45.625 C21.5803193 45.64114884 19.90971714 45.59015778 18.2421875 45.50390625 C17.25605469 45.45556641 16.26992188 45.40722656 15.25390625 45.35742188 C14.22136719 45.30134766 13.18882812 45.24527344 12.125 45.1875 C11.08472656 45.13529297 10.04445313 45.08308594 8.97265625 45.02929688 C6.39814884 44.89939054 3.82400704 44.76441748 1.25 44.625 C-0.23106073 41.01963168 -1.31371523 37.55121058 -2.1875 33.75 C-3.31250999 29.11428043 -4.80997091 24.99006546 -6.75 20.625 C-8.85432781 14.38530162 -10.3996505 8.0651284 -11.75 1.625 C-7.96332311 -0.93198285 -4.3377666 -0.40999684 0 0 Z " fill="#FAFAF9" transform="translate(981.75,234.375)"/>
<path d="M0 0 C1.67542976 0.28604898 3.34385343 0.61781233 5 1 C4.48129229 7.80766391 2.55710977 13.46017668 0.0546875 19.78515625 C-0.34680511 20.82139633 -0.74829773 21.85763641 -1.16195679 22.92527771 C-2.4746045 26.30767391 -3.79980608 29.68500198 -5.125 33.0625 C-6.04585055 35.42932639 -6.96576319 37.7965179 -7.88476562 40.1640625 C-9.72929441 44.91323182 -11.57809812 49.66069853 -13.43066406 54.40673828 C-16.52479346 62.33848733 -19.58156989 70.28434377 -22.63034058 78.23361206 C-24.10375866 82.07343358 -25.58153422 85.91157813 -27.05859375 89.75 C-29.64501061 96.47339503 -32.22839197 103.19795241 -34.81057739 109.92297363 C-36.61517745 114.62245039 -38.42059051 119.32161463 -40.22607422 124.02075195 C-41.10421572 126.30690368 -41.98199376 128.59319506 -42.859375 130.87963867 C-43.48585938 132.51219604 -43.48585938 132.51219604 -44.125 134.17773438 C-44.53273651 135.24028442 -44.94047302 136.30283447 -45.36056519 137.39758301 C-46.53150651 140.44055465 -47.71079703 143.48018615 -48.89111328 146.51953125 C-50.21758078 149.94077665 -51.50478913 153.37104018 -52.74560547 156.82421875 C-53.00848862 157.53509644 -53.27137177 158.24597412 -53.54222107 158.97839355 C-54.21809732 160.80833934 -54.87545647 162.64509629 -55.53100586 164.48242188 C-57 167 -57 167 -59.60766602 167.93945312 C-60.39713623 167.95943359 -61.18660645 167.97941406 -62 168 C-62.33 167.67 -62.66 167.34 -63 167 C-62.56408996 160.88249148 -60.55079945 155.6087169 -58.34375 149.92578125 C-57.78287186 148.45598564 -57.78287186 148.45598564 -57.21066284 146.95649719 C-55.98080276 143.73908946 -54.74052867 140.52580768 -53.5 137.3125 C-52.63434964 135.05474655 -51.76928571 132.79676818 -50.90478516 130.53857422 C-48.69894979 124.7827824 -46.48403262 119.03053934 -44.26525879 113.27972412 C-43.07896299 110.20468288 -41.89414084 107.12907923 -40.70996094 104.05322266 C-36.53020194 93.19865131 -32.33491534 82.35014353 -28.13232422 71.50439453 C-24.76103992 62.80341889 -21.3965774 54.09980574 -18.03277588 45.39593506 C-16.98314601 42.68058441 -15.93278991 39.96551566 -14.88232422 37.25048828 C-14.22225685 35.54332284 -13.56226216 33.83612928 -12.90234375 32.12890625 C-12.58442871 31.30704834 -12.26651367 30.48519043 -11.93896484 29.63842773 C-10.19674721 25.12694988 -8.47103266 20.6096887 -6.76220703 16.08544922 C-6.3949501 15.11461899 -6.02769318 14.14378876 -5.64930725 13.14353943 C-4.93990636 11.26591463 -4.23281808 9.38741409 -3.52830505 7.50794983 C-3.05325279 6.25092506 -3.05325279 6.25092506 -2.56860352 4.96850586 C-2.28920425 4.22483261 -2.00980499 3.48115936 -1.72193909 2.71495056 C-1 1 -1 1 0 0 Z " fill="#F2F6F8" transform="translate(160,88)"/>
<path d="M0 0 C5.47546188 0.12350666 8.83291595 3.85690003 12.75 7.25 C14.2686303 8.53515987 15.78952686 9.81764582 17.3125 11.09765625 C18.08851563 11.75008301 18.86453125 12.40250977 19.6640625 13.07470703 C23.27838754 16.05365428 27.00778086 18.8721001 30.75 21.6875 C36.48070358 26.01200424 42.01919079 30.48597794 47.4543457 35.17504883 C51.673658 38.79036139 56.08257969 42.05703031 60.609375 45.2734375 C63.53405375 47.38570549 66.27241969 49.64101163 69 52 C68.96005119 54.72151235 68.54607486 56.45259418 66.59765625 58.40576172 C64.6050816 59.97893155 62.56883904 61.46599862 60.5 62.9375 C58.94053513 64.08559563 57.38330664 65.23673405 55.828125 66.390625 C55.02697266 66.98294922 54.22582031 67.57527344 53.40039062 68.18554688 C49.5858011 71.06899168 45.91916445 74.12252043 42.25 77.1875 C36.24354298 82.18384566 30.152645 87.02556391 23.93359375 91.75390625 C21.12983795 93.90059012 18.37218625 96.09409546 15.625 98.3125 C14.08463333 99.54329541 12.54308184 100.77261039 11 102 C10.34128906 102.52980469 9.68257812 103.05960937 9.00390625 103.60546875 C6.30821168 105.67506652 4.48578364 106.94832089 1.0625 107.3125 C0.381875 107.209375 -0.29875 107.10625 -1 107 C-1.43359375 104.875 -1.43359375 104.875 -1 102 C1.02646151 99.649918 3.47060184 97.86734246 5.9375 96 C6.65752197 95.43531006 7.37754395 94.87062012 8.11938477 94.28881836 C10.39974799 92.50801734 12.69690288 90.75127271 15 89 C15.71027344 88.45746582 16.42054688 87.91493164 17.15234375 87.35595703 C19.94920659 85.21989861 22.74717701 83.08540194 25.55249023 80.96044922 C30.80308395 76.96761601 35.9217259 72.83429758 41 68.625 C41.71091797 68.03581787 42.42183594 67.44663574 43.15429688 66.83959961 C43.83685547 66.27378174 44.51941406 65.70796387 45.22265625 65.125 C48.27255435 62.59718383 51.33444972 60.0875807 54.4375 57.625 C55.09621094 57.10164063 55.75492188 56.57828125 56.43359375 56.0390625 C58 55 58 55 60 55 C56.44238834 51.30352246 52.69473853 48.06487002 48.625 44.9375 C47.37710323 43.96809242 46.12972493 42.99801712 44.8828125 42.02734375 C44.2424707 41.52960449 43.60212891 41.03186523 42.94238281 40.51904297 C39.7728047 38.04027034 36.63705872 35.5197111 33.5 33 C28.64104549 29.10441555 23.76921226 25.2262058 18.875 21.375 C18.30894043 20.92688965 17.74288086 20.4787793 17.15966797 20.01708984 C14.22598323 17.70455724 11.26411208 15.45116289 8.234375 13.265625 C7.32582764 12.59974365 7.32582764 12.59974365 6.39892578 11.92041016 C5.24571033 11.07827402 4.08296396 10.24898468 2.90966797 9.43505859 C1.3515625 8.2890625 1.3515625 8.2890625 -1 6 C-1.4140625 3.2734375 -1.4140625 3.2734375 -1 1 C-0.67 0.67 -0.34 0.34 0 0 Z " fill="#F2F6F9" transform="translate(172,118)"/>
<path d="M0 0 C0.556875 0.2475 1.11375 0.495 1.6875 0.75 C2.1825 2.73 2.1825 2.73 2.6875 4.75 C-3.76255513 10.61914955 -10.59410853 15.96205738 -17.47021484 21.31494141 C-20.40224951 23.59886664 -23.32677917 25.89231005 -26.25 28.1875 C-26.82081299 28.63544922 -27.39162598 29.08339844 -27.97973633 29.54492188 C-33.02007723 33.50674958 -38.02422041 37.51308235 -43.02539062 41.52416992 C-47.75248872 45.31198911 -52.51207733 49.05536575 -57.3125 52.75 C-55.98537174 56.73138478 -54.04995389 57.6963389 -50.6875 60.1875 C-49.49501907 61.08190228 -48.30365647 61.9777971 -47.11328125 62.875 C-46.17669678 63.57882813 -46.17669678 63.57882813 -45.22119141 64.296875 C-42.06012174 66.70346065 -38.96877314 69.19537232 -35.875 71.6875 C-31.63137223 75.09850005 -27.37802974 78.49465815 -23.08837891 81.84765625 C-20.78678895 83.64747467 -18.49209446 85.45595983 -16.19824219 87.265625 C-14.85476786 88.32315011 -13.50879068 89.37749888 -12.16113281 90.4296875 C-9.93299657 92.17268847 -7.71575357 93.92879661 -5.5 95.6875 C-4.7994751 96.23140381 -4.0989502 96.77530762 -3.37719727 97.33569336 C-2.73065186 97.85268799 -2.08410645 98.36968262 -1.41796875 98.90234375 C-0.84199951 99.35601318 -0.26603027 99.80968262 0.32739258 100.27709961 C1.9923785 102.08016191 2.46116103 103.31403066 2.6875 105.75 C2.0275 106.41 1.3675 107.07 0.6875 107.75 C-2.45435144 107.396271 -4.32406108 106.19501656 -6.7109375 104.1953125 C-7.34789551 103.66856934 -7.98485352 103.14182617 -8.64111328 102.59912109 C-9.3164209 102.03016113 -9.99172852 101.46120117 -10.6875 100.875 C-12.12941859 99.68133703 -13.57214118 98.48864467 -15.015625 97.296875 C-15.73814453 96.69810547 -16.46066406 96.09933594 -17.20507812 95.48242188 C-20.24595163 92.98264912 -23.3352873 90.54795416 -26.4375 88.125 C-27.00718506 87.67906494 -27.57687012 87.23312988 -28.16381836 86.77368164 C-29.30854973 85.87810818 -30.45364833 84.98300391 -31.59912109 84.08837891 C-41.35758462 76.46570905 -51.06059789 68.7765876 -60.71923828 61.02783203 C-62.91534978 59.2665008 -65.11381487 57.50811684 -67.3125 55.75 C-66.81239096 51.78406795 -66.08057579 50.0392601 -62.953125 47.55078125 C-62.25630615 46.98673584 -61.5594873 46.42269043 -60.84155273 45.84155273 C-60.08946533 45.25446533 -59.33737793 44.66737793 -58.5625 44.0625 C-57.79043213 43.44383057 -57.01836426 42.82516113 -56.22290039 42.18774414 C-50.74810295 37.81866885 -45.19681851 33.5478152 -39.62109375 29.30859375 C-35.78632066 26.36926175 -32.05198553 23.3090145 -28.3125 20.25 C-22.31633247 15.34600698 -16.24546125 10.56289605 -10.08203125 5.87109375 C-8.21816401 4.44361855 -6.38839337 2.97061696 -4.59375 1.45703125 C-2.3125 -0.25 -2.3125 -0.25 0 0 Z " fill="#F3F7F9" transform="translate(90.3125,118.25)"/>
<path d="M0 0 C0 0.99 0 1.98 0 3 C-1.79036458 3.87890625 -3.58072917 4.7578125 -5.37109375 5.63671875 C-7.24722518 6.91099009 -7.24722518 6.91099009 -7.4296875 9.38671875 C-8.21274855 12.97485464 -9.80179233 13.90911353 -12.6875 16.125 C-13.67363281 16.89457031 -14.65976563 17.66414063 -15.67578125 18.45703125 C-16.47749756 19.06925537 -16.47749756 19.06925537 -17.29541016 19.69384766 C-19.72814541 21.55794585 -22.12932753 23.4613014 -24.53442383 25.36083984 C-26.83662316 27.17658162 -29.14623821 28.9826607 -31.45996094 30.78369141 C-32.92289692 31.9391047 -34.35696089 33.13080074 -35.7890625 34.32421875 C-38 36 -38 36 -40 36 C-40 36.66 -40 37.32 -40 38 C-39.44957031 38.25007813 -38.89914063 38.50015625 -38.33203125 38.7578125 C-35.56417281 40.23214916 -33.19105019 41.98435214 -30.6875 43.875 C-29.91841309 44.45568237 -29.91841309 44.45568237 -29.13378906 45.0480957 C-24.12251802 48.85734899 -19.21002558 52.79021977 -14.31860352 56.75170898 C-10.99405548 59.43847066 -7.63643634 61.99585609 -4.125 64.4375 C-1.56157661 66.30735646 -1.0880363 66.74689564 0 69.875 C0 70.57625 0 71.2775 0 72 C1.32 72.33 2.64 72.66 4 73 C4 74.32 4 75.64 4 77 C-0.24815062 76.46382565 -3.04378838 73.86037897 -6.25 71.25 C-6.8577124 70.764104 -7.4654248 70.27820801 -8.09155273 69.77758789 C-10.06784097 68.19329071 -12.03508311 66.59837422 -14 65 C-14.66209473 64.46165527 -15.32418945 63.92331055 -16.00634766 63.36865234 C-18.69974983 61.17695593 -21.39254217 58.9845283 -24.08227539 56.78833008 C-29.3901355 52.46482029 -34.78350882 48.26749585 -40.23046875 44.12109375 C-42.84955886 42.11521797 -45.43182885 40.07049996 -48 38 C-46.46080439 33.78182468 -43.34385647 31.65833008 -39.875 29.0625 C-38.60178824 28.08734121 -37.32969654 27.1107187 -36.05859375 26.1328125 C-35.39327637 25.62266602 -34.72795898 25.11251953 -34.04248047 24.58691406 C-30.62452431 21.9313182 -27.28506802 19.18087677 -23.9375 16.4375 C-18.88163946 12.31954356 -13.81728023 8.21319088 -8.6875 4.1875 C-7.66011719 3.37667969 -6.63273437 2.56585938 -5.57421875 1.73046875 C-3 0 -3 0 0 0 Z " fill="#5E6D85" transform="translate(80,135)"/>
<path d="M0 0 C2.90398503 2.11912421 3.84245093 3.50634623 4.9375 6.9375 C5.01479591 10.72499976 4.17803833 11.93052826 2 15 C-0.56640625 17.39453125 -0.56640625 17.39453125 -3.5625 19.8125 C-4.08682617 20.23901855 -4.61115234 20.66553711 -5.15136719 21.10498047 C-6.76132408 22.41130941 -8.37975258 23.7064671 -10 25 C-10.99386719 25.80050781 -11.98773438 26.60101563 -13.01171875 27.42578125 C-15.33503645 29.29172685 -17.66408185 31.14987014 -20 33 C-20.66 32.67 -21.32 32.34 -22 32 C-21.8125 30.1875 -21.8125 30.1875 -21 28 C-16.82142857 25 -16.82142857 25 -14 25 C-14 24.01 -14 23.02 -14 22 C-14.66 21.67 -15.32 21.34 -16 21 C-15.07316406 20.32453125 -14.14632812 19.6490625 -13.19140625 18.953125 C-11.98136463 18.05262891 -10.77175136 17.15155703 -9.5625 16.25 C-8.95083984 15.8065625 -8.33917969 15.363125 -7.70898438 14.90625 C-4.44469421 12.45352369 -2.69473239 11.04071377 -2 7 C-3.66731784 6.03591361 -3.66731784 6.03591361 -6 6 C-8.27346685 7.57552431 -10.21149136 9.10137918 -12.25 10.9375 C-12.80429688 11.41896484 -13.35859375 11.90042969 -13.9296875 12.39648438 C-15.29633335 13.58640878 -16.64950614 14.79177515 -18 16 C-18.33 14.68 -18.66 13.36 -19 12 C-20.98 12.66 -22.96 13.32 -25 14 C-9.32515337 -2.7198364 -9.32515337 -2.7198364 0 0 Z " fill="#344469" transform="translate(94,113)"/>
<path d="M0 0 C-0.06470278 2.69760811 -0.4943451 4.45813591 -2.35693359 6.45410156 C-4.25716156 8.07468135 -6.20335934 9.60825295 -8.1875 11.125 C-8.90856934 11.6926709 -9.62963867 12.2603418 -10.37255859 12.84521484 C-12.57327276 14.57458887 -14.78634706 16.28723931 -17 18 C-18.2292512 18.96698991 -19.45720859 19.93562781 -20.68359375 20.90625 C-23.52151252 23.1505286 -26.3691204 25.3820064 -29.22070312 27.60888672 C-32.44375766 30.1287776 -35.65878237 32.65889317 -38.875 35.1875 C-40.05986345 36.1185308 -41.24475613 37.0495244 -42.4296875 37.98046875 C-43.27789062 38.64691406 -44.12609375 39.31335938 -45 40 C-45.99 39.01 -46.98 38.02 -48 37 C-45.07478752 32.58350272 -42.10299588 28.86002345 -37.84765625 25.6640625 C-37.05641357 25.06360107 -36.2651709 24.46313965 -35.44995117 23.84448242 C-34.64146729 23.23580322 -33.8329834 22.62712402 -33 22 C-31.47476389 20.82394354 -29.95129804 19.64558731 -28.4296875 18.46484375 C-26.14556026 16.69591846 -23.86143845 14.92703527 -21.57421875 13.16210938 C-17.43701141 9.9541715 -13.39989502 6.68297523 -9.48779297 3.20288086 C-6.45757938 0.75295267 -3.83277073 0 0 0 Z " fill="#637388" transform="translate(75,125)"/>
<path d="M0 0 C-9.85781238 8.19973793 -19.78942474 16.2440116 -30 24 C-31.20799132 24.93235117 -32.41499527 25.86598277 -33.62109375 26.80078125 C-34.21760742 27.26258789 -34.81412109 27.72439453 -35.42871094 28.20019531 C-36.57469171 29.08783728 -37.71991286 29.97646108 -38.86425781 30.86621094 C-43.648804 34.56213002 -45.9020291 35.11292539 -52 35 C-52.33 34.34 -52.66 33.68 -53 33 C-51.02 33 -49.04 33 -47 33 C-47 32.34 -47 31.68 -47 31 C-47.99 30.34 -48.98 29.68 -50 29 C-48.50339844 28.44505859 -48.50339844 28.44505859 -46.9765625 27.87890625 C-42.48973291 25.95098927 -39.07151768 23.07867444 -35.375 19.9375 C-33.96436645 18.7698362 -32.55289666 17.60318198 -31.140625 16.4375 C-30.44388672 15.85871094 -29.74714844 15.27992188 -29.02929688 14.68359375 C-8.4563096 -2.38465941 -8.4563096 -2.38465941 0 0 Z " fill="#354969" transform="translate(222,196)"/>
<path d="M0 0 C1.65 0.33 3.3 0.66 5 1 C5 1.66 5 2.32 5 3 C5.639375 3.309375 6.27875 3.61875 6.9375 3.9375 C9 5 9 5 10 6 C10.375 8.8125 10.375 8.8125 10 12 C7.85293133 14.63189063 6.19371254 15.7690285 2.83984375 16.41796875 C-1.46096517 16.68362807 -3.48998875 16.34680765 -7.125 13.875 C-9 11 -9 11 -9.0625 7.875 C-7.85940611 4.61956947 -7.0627016 3.57510368 -4 2 C-2.68 2 -1.36 2 0 2 C0 1.34 0 0.68 0 0 Z " fill="#F7F7F5" transform="translate(847,264)"/>
<path d="M0 0 C4.875 2.75 4.875 2.75 6 5 C6.90412294 11.66790665 6.90412294 11.66790665 4.75390625 14.8359375 C2.92623705 16.70159521 1.03045412 18.35700868 -1 20 C-1.73347656 20.59941406 -2.46695313 21.19882813 -3.22265625 21.81640625 C-5.45221294 23.58704904 -7.71852327 25.29704058 -10 27 C-10.598125 27.47695312 -11.19625 27.95390625 -11.8125 28.4453125 C-17.30520231 32.69198512 -23.33333511 34.37471827 -30 36 C-26.61191728 31.21577821 -22.46543525 28.07740614 -17.8125 24.625 C-16.286161 23.47826023 -14.76011674 22.33112806 -13.234375 21.18359375 C-12.50412109 20.63687012 -11.77386719 20.09014648 -11.02148438 19.52685547 C-7.81826699 17.1074205 -4.68823541 14.59734095 -1.56640625 12.07421875 C0 11 0 11 2 11 C2.33 8.69 2.66 6.38 3 4 C2.01 3.34 1.02 2.68 0 2 C0 1.34 0 0.68 0 0 Z " fill="#3A4F6D" transform="translate(240,163)"/>
<path d="M0 0 C0.66 0 1.32 0 2 0 C2.87392795 8.60333515 0.43199251 15.17995992 -3 23 C-3.66 23 -4.32 23 -5 23 C-5.33 23.99 -5.66 24.98 -6 26 C-6.66 26 -7.32 26 -8 26 C-7.95875 27.0725 -7.9175 28.145 -7.875 29.25 C-7.9885825 32.65747485 -8.21273364 34.20739631 -10 37 C-10.99 37 -11.98 37 -13 37 C-13.12375 37.61875 -13.2475 38.2375 -13.375 38.875 C-14 41 -14 41 -16 43 C-15.42230422 37.59922645 -14.09406737 32.99890076 -12.12890625 27.94921875 C-11.84651596 27.2092012 -11.56412567 26.46918365 -11.2731781 25.70674133 C-10.67905649 24.15494493 -10.0813498 22.60451678 -9.48022461 21.05541992 C-8.55979678 18.68052512 -7.65317282 16.3006848 -6.74804688 13.91992188 C-6.1674754 12.40854326 -5.5861227 10.89746445 -5.00390625 9.38671875 C-4.59755699 8.31957893 -4.59755699 8.31957893 -4.18299866 7.23088074 C-3.05445061 4.3403935 -2.21894352 2.21894352 0 0 Z " fill="#576882" transform="translate(143,152)"/>
<path d="M0 0 C0.99 0.33 1.98 0.66 3 1 C3 1.66 3 2.32 3 3 C3.85335937 3.06445312 4.70671875 3.12890625 5.5859375 3.1953125 C9.74909988 4.1765613 12.39735277 6.21294516 15.625 8.875 C16.74218457 9.76823283 17.859372 10.66146208 18.9765625 11.5546875 C19.97429687 12.36164063 20.97203125 13.16859375 22 14 C23.18722656 14.80824219 23.18722656 14.80824219 24.3984375 15.6328125 C24.92695313 16.08398438 25.45546875 16.53515625 26 17 C26 17.99 26 18.98 26 20 C27.32 20.66 28.64 21.32 30 22 C29.38722388 24.96175123 28.74627478 26.38058783 27 29 C26.78988281 28.27167969 26.57976562 27.54335937 26.36328125 26.79296875 C24.65308282 23.28926709 22.27708035 21.52675186 19.1875 19.3125 C18.02058278 18.44695227 16.85392417 17.5810558 15.6875 16.71484375 C14.78257812 16.05137939 14.78257812 16.05137939 13.859375 15.37451172 C10.76624541 13.08796766 7.72982587 10.72844941 4.6875 8.375 C3.58750024 7.52830708 2.48726414 6.68192107 1.38671875 5.8359375 C0.59910156 5.23007813 -0.18851563 4.62421875 -1 4 C-0.67 2.68 -0.34 1.36 0 0 Z " fill="#465976" transform="translate(214,145)"/>
<path d="M0 0 C2.31 0.66 4.62 1.32 7 2 C7.33 3.32 7.66 4.64 8 6 C9.32 6 10.64 6 12 6 C12 5.34 12 4.68 12 4 C16.1655276 5.77034923 19.48695357 8.58220158 23 11.375 C23.92425781 12.09816406 23.92425781 12.09816406 24.8671875 12.8359375 C28.10862295 15.39569768 31.15179312 17.99514174 34 21 C33.01 21 32.02 21 31 21 C31 21.99 31 22.98 31 24 C31.66 24 32.32 24 33 24 C32.67 24.66 32.34 25.32 32 26 C26.8636441 22.21229621 21.84306938 18.30238094 16.875 14.296875 C14.67770576 12.54142797 12.47043732 10.80388828 10.25 9.078125 C9.60885254 8.57885498 8.96770508 8.07958496 8.30712891 7.56518555 C7.03008339 6.57198171 5.75114067 5.58121196 4.47021484 4.59301758 C2.96202776 3.41823904 1.4783671 2.2120906 0 1 C0 0.67 0 0.34 0 0 Z " fill="#5D6B86" transform="translate(184,140)"/>
<path d="M0 0 C1.22332031 0.04576172 2.44664062 0.09152344 3.70703125 0.13867188 C4.98191406 0.20248047 6.25679687 0.26628906 7.5703125 0.33203125 C8.83746094 0.37650391 10.10460937 0.42097656 11.41015625 0.46679688 C17.245762 0.71531636 22.18463183 1.08543003 27.6953125 3.14453125 C27.6953125 3.47453125 27.6953125 3.80453125 27.6953125 4.14453125 C16.1453125 3.81453125 4.5953125 3.48453125 -7.3046875 3.14453125 C-7.3046875 22.61453125 -7.3046875 42.08453125 -7.3046875 62.14453125 C-7.9646875 62.14453125 -8.6246875 62.14453125 -9.3046875 62.14453125 C-9.30246689 61.46436951 -9.30024628 60.78420776 -9.29795837 60.08343506 C-9.27585246 53.01086959 -9.26075865 45.93831393 -9.24975586 38.86572266 C-9.24472393 36.22541912 -9.23789779 33.58511838 -9.22924805 30.94482422 C-9.21713271 27.15201123 -9.2114478 23.35923505 -9.20703125 19.56640625 C-9.20186996 18.38399353 -9.19670868 17.20158081 -9.19139099 15.9833374 C-9.19131546 14.88249817 -9.19123993 13.78165894 -9.19116211 12.64746094 C-9.1889415 11.67927429 -9.18672089 10.71108765 -9.18443298 9.71356201 C-9.29419888 7.3686025 -9.63729716 5.38683716 -10.3046875 3.14453125 C-6.88913577 -0.02645908 -4.58339936 -0.18464874 0 0 Z " fill="#E9E9E7" transform="translate(877.3046875,217.85546875)"/>
<path d="M0 0 C4.67594296 0.49448747 7.69673709 2.63012151 11.3125 5.4375 C11.86228516 5.84548828 12.41207031 6.25347656 12.97851562 6.67382812 C14.36252188 7.72773599 15.68706569 8.85877321 17 10 C17 10.66 17 11.32 17 12 C14.97479535 13.78206149 12.95286908 15.43009338 10.8125 17.0625 C10.23435547 17.52205078 9.65621094 17.98160156 9.06054688 18.45507812 C5.76462772 20.99125998 3.26622324 22.60631838 -1 23 C0.48868707 18.39860359 2.74629855 15.49772906 6 12 C6.66 12 7.32 12 8 12 C7.195625 11.2575 6.39125 10.515 5.5625 9.75 C3.23011409 7.24695171 2.36465606 6.2819045 2 3 C1.34 3 0.68 3 0 3 C0 2.01 0 1.02 0 0 Z " fill="#627089" transform="translate(215,161)"/>
<path d="M0 0 C0.66 0.33 1.32 0.66 2 1 C1.01 2.485 1.01 2.485 0 4 C0.30840599 6.15274948 0.30840599 6.15274948 1 8 C-0.65 9.32 -2.3 10.64 -4 12 C-3.5206753 16.31392226 -2.2542015 18.16569547 1 21 C0.34 21 -0.32 21 -1 21 C-0.49396008 23.16874252 -0.00016187 24.99967627 1 27 C-1.93440199 25.65263662 -4.25073427 24.11433035 -6.6875 22 C-7.28949219 21.484375 -7.89148438 20.96875 -8.51171875 20.4375 C-10.58106369 18.43876263 -10.97285987 17.16671795 -11.4375 14.3125 C-10.66792376 8.48570849 -6.45423557 5.23293886 -2.125 1.5625 C-1.42375 1.046875 -0.7225 0.53125 0 0 Z " fill="#61708A" transform="translate(28,158)"/>
<path d="M0 0 C0.66 0.33 1.32 0.66 2 1 C1.36153164 4.63824318 0.38032985 7.93383375 -0.92578125 11.38671875 C-1.50295898 12.9190918 -1.50295898 12.9190918 -2.09179688 14.48242188 C-2.49462891 15.54009766 -2.89746094 16.59777344 -3.3125 17.6875 C-3.70373047 18.72583984 -4.09496094 19.76417969 -4.49804688 20.83398438 C-6.92478142 27.25295884 -9.42531772 33.63896818 -12 40 C-12.33 38.68 -12.66 37.36 -13 36 C-13.66 36 -14.32 36 -15 36 C-16.63166258 31.97058936 -15.27379498 29.22269804 -13.75 25.3125 C-13.09257813 23.57419922 -13.09257813 23.57419922 -12.421875 21.80078125 C-11 19 -11 19 -8 18 C-7.67 17.01 -7.34 16.02 -7 15 C-6.01 14.67 -5.02 14.34 -4 14 C-3.34 10.7 -2.68 7.4 -2 4 C-1.34 4 -0.68 4 0 4 C0 2.68 0 1.36 0 0 Z " fill="#4A5B78" transform="translate(137,174)"/>
<path d="M0 0 C-0.49791354 4.0501858 -1.31523108 5.78230382 -4.4921875 8.33203125 C-5.54986328 9.18764648 -5.54986328 9.18764648 -6.62890625 10.06054688 C-7.37011719 10.63869141 -8.11132812 11.21683594 -8.875 11.8125 C-9.60847656 12.40998047 -10.34195313 13.00746094 -11.09765625 13.62304688 C-16.59010714 18 -16.59010714 18 -20 18 C-20 17.01 -20 16.02 -20 15 C-21.32 15.99 -22.64 16.98 -24 18 C-24.66 17.67 -25.32 17.34 -26 17 C-23.93821926 15.24914666 -21.87560123 13.49929619 -19.8125 11.75 C-19.23435547 11.25886719 -18.65621094 10.76773438 -18.06054688 10.26171875 C-5.95171875 0 -5.95171875 0 0 0 Z " fill="#778498" transform="translate(75,125)"/>
<path d="M0 0 C0.4370755 6.15204378 -1.02631073 10.69862665 -3.3125 16.375 C-3.62123047 17.19355469 -3.92996094 18.01210937 -4.24804688 18.85546875 C-6.01551242 23.34297074 -6.01551242 23.34297074 -7 25 C-7.99 25.33 -8.98 25.66 -10 26 C-10.66 25.34 -11.32 24.68 -12 24 C-11.61468083 16.29361651 -8.73219151 7.37506011 -3.875 1.375 C-2 0 -2 0 0 0 Z " fill="#334769" transform="translate(127,168)"/>
<path d="M0 0 C0.66 0.33 1.32 0.66 2 1 C1.360625 1.78375 0.72125 2.5675 0.0625 3.375 C-1.98142313 5.79539281 -1.98142313 5.79539281 -3 8 C-2.34 8.33 -1.68 8.66 -1 9 C-5.29 12.63 -9.58 16.26 -14 20 C-16.475 19.01 -16.475 19.01 -19 18 C-19.99 18 -20.98 18 -22 18 C-14.78816969 11.8359472 -7.56693908 5.72897455 0 0 Z " fill="#5E6D83" transform="translate(217,176)"/>
<path d="M0 0 C0.66 0.33 1.32 0.66 2 1 C2 1.66 2 2.32 2 3 C3.03125 3.061875 4.0625 3.12375 5.125 3.1875 C10.00375259 4.21046425 11.58597212 5.42339936 15 9 C15.875 11.8125 15.875 11.8125 16 14 C17.32 14.33 18.64 14.66 20 15 C20 16.32 20 17.64 20 19 C16.98395794 18.40666003 15.06203295 17.53342089 12.65234375 15.63671875 C11.74452148 14.92418945 11.74452148 14.92418945 10.81835938 14.19726562 C10.19767578 13.69904297 9.57699219 13.20082031 8.9375 12.6875 C8.31294922 12.20087891 7.68839844 11.71425781 7.04492188 11.21289062 C0.77685532 6.24258812 0.77685532 6.24258812 -1 3 C-0.67 2.01 -0.34 1.02 0 0 Z " fill="#3E506A" transform="translate(64,193)"/>
<path d="M0 0 C0.33 0.66 0.66 1.32 1 2 C1.66 2 2.32 2 3 2 C1.17778624 8.61242722 -1.05223604 14.80520671 -4 21 C-4.66 21 -5.32 21 -6 21 C-6 22.32 -6 23.64 -6 25 C-6.99 25 -7.98 25 -9 25 C-9.33 25.66 -9.66 26.32 -10 27 C-9.69163768 24.87439563 -9.37818386 22.74952935 -9.0625 20.625 C-8.88847656 19.44164063 -8.71445313 18.25828125 -8.53515625 17.0390625 C-8 14 -8 14 -7 12 C-6.34 12 -5.68 12 -5 12 C-3.03571772 8.49235307 -2.09048815 4.85305811 -1 1 C-0.67 0.67 -0.34 0.34 0 0 Z " fill="#3C4E6C" transform="translate(153,95)"/>
<path d="M0 0 C0.33 0.66 0.66 1.32 1 2 C-1.31 2.33 -3.62 2.66 -6 3 C-6.12375 4.051875 -6.2475 5.10375 -6.375 6.1875 C-6.91140782 9.45958771 -7.63880035 12.00536076 -9 15 C-10.32 14.67 -11.64 14.34 -13 14 C-13.27263672 14.81404297 -13.27263672 14.81404297 -13.55078125 15.64453125 C-13.92783203 16.71767578 -13.92783203 16.71767578 -14.3125 17.8125 C-14.55613281 18.52019531 -14.79976562 19.22789063 -15.05078125 19.95703125 C-16.06724258 22.14472373 -17.20820594 23.40896718 -19 25 C-18.39010923 19.81999443 -16.76526365 15.53865003 -14.6875 10.8125 C-14.39166016 10.10158203 -14.09582031 9.39066406 -13.79101562 8.65820312 C-10.68600379 1.52941786 -8.06317308 -0.46518306 0 0 Z " fill="#677589" transform="translate(166,82)"/>
<path d="M0 0 C4.40533521 2.48010284 8.2935731 5.43922109 12.25 8.5625 C12.88679687 9.05685547 13.52359375 9.55121094 14.1796875 10.06054688 C18.87653374 13.75306748 18.87653374 13.75306748 20 16 C17.5625 15.625 17.5625 15.625 15 15 C14.67 14.34 14.34 13.68 14 13 C13.34 13 12.68 13 12 13 C11.34 13.66 10.68 14.32 10 15 C6.37 12.03 2.74 9.06 -1 6 C-0.67 4.02 -0.34 2.04 0 0 Z " fill="#5A6982" transform="translate(202,133)"/>
<path d="M0 0 C0 0.99 0 1.98 0 3 C-1.134375 3.556875 -2.26875 4.11375 -3.4375 4.6875 C-5.38879034 5.73573104 -5.38879034 5.73573104 -7 7 C-7.38218767 8.65614657 -7.71395102 10.32457024 -8 12 C-12.75675676 16.86486486 -12.75675676 16.86486486 -16.875 17.3125 C-17.57625 17.209375 -18.2775 17.10625 -19 17 C-19 15.68 -19 14.36 -19 13 C-17.11970359 11.12857291 -15.33079355 9.55132476 -13.25 7.9375 C-12.71117188 7.50373047 -12.17234375 7.06996094 -11.6171875 6.62304688 C-10.0904625 5.39980501 -8.54563039 4.19926503 -7 3 C-6.27296875 2.40316406 -5.5459375 1.80632812 -4.796875 1.19140625 C-3 0 -3 0 0 0 Z " fill="#4E607B" transform="translate(80,135)"/>
<path d="M0 0 C1.32 0 2.64 0 4 0 C4.20086443 3.71599191 4.1519437 4.77208445 2 8 C1.34 8 0.68 8 0 8 C0.04125 9.0725 0.0825 10.145 0.125 11.25 C0.0114175 14.65747485 -0.21273364 16.20739631 -2 19 C-2.99 19 -3.98 19 -5 19 C-5.12375 19.61875 -5.2475 20.2375 -5.375 20.875 C-6 23 -6 23 -8 25 C-7.43375164 19.05837993 -5.6793942 14.07178852 -3.4375 8.5625 C-3.10814453 7.73556641 -2.77878906 6.90863281 -2.43945312 6.05664062 C-1.63314164 4.03501907 -0.81751877 2.01711551 0 0 Z " fill="#374B6C" transform="translate(135,170)"/>
<path d="M0 0 C0.33 0 0.66 0 1 0 C1.08172936 2.5215021 1.14083373 5.04029917 1.1875 7.5625 C1.22520508 8.61920898 1.22520508 8.61920898 1.26367188 9.69726562 C1.33532304 14.88003315 0.32172598 18.36264182 -2 23 C-2.66 23 -3.32 23 -4 23 C-3.67 21.68 -3.34 20.36 -3 19 C-4.65 20.32 -6.3 21.64 -8 23 C-7.26905294 17.94514073 -5.31619096 13.40096821 -3.4375 8.6875 C-3.10814453 7.85154297 -2.77878906 7.01558594 -2.43945312 6.15429688 C-1.63001123 4.10136454 -0.81676543 2.05002714 0 0 Z " fill="#64748A" transform="translate(130,149)"/>
<path d="M0 0 C4.67356492 2.58634175 8.68240407 5.83204407 12.8125 9.1875 C13.50537109 9.74630859 14.19824219 10.30511719 14.91210938 10.88085938 C16.61031334 12.2511343 18.30546593 13.62518934 20 15 C19.01 15.495 19.01 15.495 18 16 C15 15 15 15 13 13 C12.67 13.99 12.34 14.98 12 16 C10.67823515 15.09674384 9.36784934 14.17682097 8.0625 13.25 C7.33160156 12.73953125 6.60070313 12.2290625 5.84765625 11.703125 C3.7566969 9.77572906 3.54167976 8.71410071 3 6 C2.34 5.67 1.68 5.34 1 5 C0.375 2.4375 0.375 2.4375 0 0 Z " fill="#5B6B86" transform="translate(51,181)"/>
<path d="M0 0 C0.66 0.33 1.32 0.66 2 1 C1.814375 1.61875 1.62875 2.2375 1.4375 2.875 C0.76313824 5.04160178 0.76313824 5.04160178 2 7 C-1.3 9.64 -4.6 12.28 -8 15 C-8.33 13.68 -8.66 12.36 -9 11 C-10.98 11.66 -12.96 12.32 -15 13 C-10.43369266 8.12927217 -5.25023461 4.10843602 0 0 Z " fill="#5A6A82" transform="translate(84,114)"/>
<path d="M0 0 C4.85600034 1.47151525 8.54549014 4.35047748 12 8 C12.33 8.99 12.66 9.98 13 11 C12.34 11.66 11.68 12.32 11 13 C5.79971748 11.31755566 1.45479808 8.44670586 -1.375 3.6875 C-1.58125 3.130625 -1.7875 2.57375 -2 2 C-1.34 2 -0.68 2 0 2 C0 1.34 0 0.68 0 0 Z " fill="#617085" transform="translate(67,210)"/>
<path d="M0 0 C1.125 3.75 1.125 3.75 0 6 C0.66 6 1.32 6 2 6 C3.46726798 9.81489674 2.43336419 12.29011622 1 16 C-0.98 16.33 -2.96 16.66 -5 17 C-5 19.97 -5 22.94 -5 26 C-5.66 25.34 -6.32 24.68 -7 24 C-7 15.3040458 -3.382433 7.85096834 0 0 Z " fill="#748296" transform="translate(98,232)"/>
<path d="M0 0 C-0.37657199 2.6707644 -0.78044841 3.79395927 -2.77734375 5.66796875 C-3.49019531 6.16941406 -4.20304688 6.67085937 -4.9375 7.1875 C-6.00291016 7.95126953 -6.00291016 7.95126953 -7.08984375 8.73046875 C-10.84422077 11.2257091 -13.50785952 11.08318779 -18 11 C-18.33 10.34 -18.66 9.68 -19 9 C-17.02 9 -15.04 9 -13 9 C-13 8.34 -13 7.68 -13 7 C-13.99 6.34 -14.98 5.68 -16 5 C-13.41210938 3.92578125 -13.41210938 3.92578125 -10.82421875 2.8515625 C-4.30565897 -0.19136262 -4.30565897 -0.19136262 0 0 Z " fill="#65758C" transform="translate(188,220)"/>
<path d="M0 0 C5.59631256 0.12165897 8.74373501 2.66495515 12.875 6.0625 C13.46796875 6.53494141 14.0609375 7.00738281 14.671875 7.49414062 C16.12280128 8.65254145 17.56257172 9.82489171 19 11 C18.01 11.495 18.01 11.495 17 12 C14.375 11.0625 14.375 11.0625 12 10 C12.66 11.32 13.32 12.64 14 14 C10.05860922 12.33248852 7.2107188 9.77289351 4 7 C4.33 5.35 4.66 3.7 5 2 C2.69 2 0.38 2 -2 2 C-1.34 1.34 -0.68 0.68 0 0 Z " fill="#586883" transform="translate(172,112)"/>
<path d="M0 0 C2.64 0 5.28 0 8 0 C10.09350689 3.4019487 10.17942163 6.05272412 10 10 C9.34 10 8.68 10 8 10 C7.67 10.99 7.34 11.98 7 13 C5 11 5 11 4.6875 8 C4.3471875 6.515 4.3471875 6.515 4 5 C1.53744315 3.54708727 1.53744315 3.54708727 -1 3 C-0.67 2.01 -0.34 1.02 0 0 Z " fill="#405374" transform="translate(160,84)"/>
<path d="M0 0 C0 2.31 0 4.62 0 7 C3.465 6.505 3.465 6.505 7 6 C7 7.65 7 9.3 7 11 C5.37509046 11.02698189 3.75005367 11.04638757 2.125 11.0625 C0.76761719 11.07990234 0.76761719 11.07990234 -0.6171875 11.09765625 C-3 11 -3 11 -5 10 C-5 7.03 -5 4.06 -5 1 C-3 0 -3 0 0 0 Z " fill="#324769" transform="translate(98,248)"/>
<path d="M0 0 C2.31 1.65 4.62 3.3 7 5 C6.67 6.65 6.34 8.3 6 10 C8.64 10.33 11.28 10.66 14 11 C14.33 10.34 14.66 9.68 15 9 C15.66 9.66 16.32 10.32 17 11 C14.57818723 12.3077789 12.63280803 13.32847407 10 14 C4.79291624 12.37278633 0.96795976 8.62751351 -3 5 C-2.505 4.54625 -2.01 4.0925 -1.5 3.625 C0.22609337 2.12364481 0.22609337 2.12364481 0 0 Z " fill="#65748D" transform="translate(79,218)"/>
<path d="M0 0 C0.61875 0.33 1.2375 0.66 1.875 1 C3.91018344 2.14193235 3.91018344 2.14193235 6 2 C6.33 2.66 6.66 3.32 7 4 C9.02463255 4.65213292 9.02463255 4.65213292 11 5 C11 5.66 11 6.32 11 7 C12.32 7.66 13.64 8.32 15 9 C14.38722388 11.96175123 13.74627478 13.38058783 12 16 C11.77570313 15.26007813 11.55140625 14.52015625 11.3203125 13.7578125 C9.70628615 10.38650302 7.88136627 9.05911224 4.875 6.875 C2.1171875 4.8671875 2.1171875 4.8671875 0 3 C0 2.01 0 1.02 0 0 Z " fill="#334868" transform="translate(229,158)"/>
<path d="M0 0 C9.9 0 19.8 0 30 0 C30 0.33 30 0.66 30 1 C28.865625 1.12375 27.73125 1.2475 26.5625 1.375 C24.7990625 1.684375 24.7990625 1.684375 23 2 C22.67 2.66 22.34 3.32 22 4 C19.09740189 5.3749149 17.23861295 6 14 6 C14.33 5.01 14.66 4.02 15 3 C12.47524538 1.73762269 10.68799534 1.90143596 7.875 1.9375 C6.96492187 1.94652344 6.05484375 1.95554687 5.1171875 1.96484375 C4.41851563 1.97644531 3.71984375 1.98804688 3 2 C2.67 2.66 2.34 3.32 2 4 C1.34 2.68 0.68 1.36 0 0 Z " fill="#E3E3E3" transform="translate(941,260)"/>
<path d="M0 0 C0.33 0.99 0.66 1.98 1 3 C0.05125 3.268125 -0.8975 3.53625 -1.875 3.8125 C-5.25267273 4.74986588 -5.25267273 4.74986588 -7 8 C-7 7.01 -7 6.02 -7 5 C-7.99 5.495 -7.99 5.495 -9 6 C-9.65772428 9.02934491 -9.65772428 9.02934491 -10 12 C-12 10 -12 10 -12.3125 7.125 C-12 4 -12 4 -11.0625 1.625 C-7.73685476 -0.99520534 -4.0782683 -0.30779383 0 0 Z " fill="#7D8898" transform="translate(177,114)"/>
<path d="M0 0 C0.99 0.33 1.98 0.66 3 1 C2.31583566 5.17576168 0.98634991 8.88080407 -0.5625 12.8125 C-1.01753906 13.97394531 -1.47257813 15.13539063 -1.94140625 16.33203125 C-2.29074219 17.21246094 -2.64007813 18.09289062 -3 19 C-3.33 19 -3.66 19 -4 19 C-4 16.69 -4 14.38 -4 12 C-4.99 12.33 -5.98 12.66 -7 13 C-6.34 10.69 -5.68 8.38 -5 6 C-3.35 5.67 -1.7 5.34 0 5 C-0.2784375 4.0409375 -0.2784375 4.0409375 -0.5625 3.0625 C-0.706875 2.381875 -0.85125 1.70125 -1 1 C-0.67 0.67 -0.34 0.34 0 0 Z " fill="#5C6B83" transform="translate(156,122)"/>
<path d="M0 0 C0.103125 0.639375 0.20625 1.27875 0.3125 1.9375 C0.539375 2.618125 0.76625 3.29875 1 4 C1.99 4.33 2.98 4.66 4 5 C4 3.68 4 2.36 4 1 C4.66 1 5.32 1 6 1 C2.92482916 11.55808656 2.92482916 11.55808656 1 16 C0.34 15.01 -0.32 14.02 -1 13 C-1.99 13 -2.98 13 -4 13 C-3.40895235 8.15340923 -2.02055843 4.39251833 0 0 Z " fill="#5D6D85" transform="translate(143,115)"/>
<path d="M0 0 C0.66 0 1.32 0 2 0 C2.04898438 0.62648437 2.09796875 1.25296875 2.1484375 1.8984375 C2.22320313 2.71570313 2.29796875 3.53296875 2.375 4.375 C2.44460938 5.18710938 2.51421875 5.99921875 2.5859375 6.8359375 C2.82892588 9.20334191 2.82892588 9.20334191 5 11 C5.1953125 14.2578125 5.1953125 14.2578125 5.125 18.125 C5.10695313 19.40632813 5.08890625 20.68765625 5.0703125 22.0078125 C5.04710937 22.99523437 5.02390625 23.98265625 5 25 C4.67 25 4.34 25 4 25 C3.34 23.02 2.68 21.04 2 19 C1.01 21.475 1.01 21.475 0 24 C-0.77114486 21.68656541 -1.05466309 20.25145022 -0.53125 17.84375 C0.13481697 14.27833271 0.10741413 10.79790537 0.0625 7.1875 C0.05798828 6.49462891 0.05347656 5.80175781 0.04882812 5.08789062 C0.03713156 3.39188932 0.01919924 1.69593297 0 0 Z " fill="#E7E7E6" transform="translate(921,239)"/>
<path d="M0 0 C4.875 2.75 4.875 2.75 6 5 C6.5958589 10.19248466 6.5958589 10.19248466 6 13 C4.190832 15.21003321 2.41378929 16.39080714 0 18 C-0.33 17.01 -0.66 16.02 -1 15 C-1.66 14.34 -2.32 13.68 -3 13 C-1.35 12.34 0.3 11.68 2 11 C2.33 8.69 2.66 6.38 3 4 C2.01 3.34 1.02 2.68 0 2 C0 1.34 0 0.68 0 0 Z " fill="#6D7B8F" transform="translate(240,163)"/>
<path d="M0 0 C0.99 0.33 1.98 0.66 3 1 C2.67 3.31 2.34 5.62 2 8 C-0.75078884 8.91692961 -2.35948913 9.10886083 -5.1875 9.0625 C-7.0746875 9.0315625 -7.0746875 9.0315625 -9 9 C-9.33 8.01 -9.66 7.02 -10 6 C-9.67 5.34 -9.34 4.68 -9 4 C-6.03 4.495 -6.03 4.495 -3 5 C-2.01 3.35 -1.02 1.7 0 0 Z " fill="#2F4667" transform="translate(94,220)"/>
<path d="M0 0 C0.99 0.33 1.98 0.66 3 1 C2.52060632 5.71403788 2.03165952 9.66579301 0 14 C-0.66 14 -1.32 14 -2 14 C-2 13.34 -2 12.68 -2 12 C-2.66 12 -3.32 12 -4 12 C-3.71905418 10.1858073 -3.42493567 8.37364999 -3.125 6.5625 C-2.96257812 5.55316406 -2.80015625 4.54382813 -2.6328125 3.50390625 C-2.42398438 2.67761719 -2.21515625 1.85132813 -2 1 C-1.34 0.67 -0.68 0.34 0 0 Z " fill="#415571" transform="translate(102,226)"/>
<path d="M0 0 C1.32 0.33 2.64 0.66 4 1 C4.061875 2.1446875 4.061875 2.1446875 4.125 3.3125 C4.77823609 6.32405113 4.77823609 6.32405113 8.0625 7.8125 C9.031875 8.204375 10.00125 8.59625 11 9 C6.8204355 11.78637633 4.85331323 10.79562512 0 10 C0 6.7 0 3.4 0 0 Z " fill="#3C506D" transform="translate(167,219)"/>
<path d="M0 0 C0.99 0.33 1.98 0.66 3 1 C2.26951699 5.68803656 0.63363115 9.90885555 -1.0625 14.3125 C-1.34416016 15.05306641 -1.62582031 15.79363281 -1.91601562 16.55664062 C-2.60718575 18.37242655 -3.30311689 20.18639899 -4 22 C-4.33 22 -4.66 22 -5 22 C-5 19.69 -5 17.38 -5 15 C-4.34 15 -3.68 15 -3 15 C-3 13.68 -3 12.36 -3 11 C-3.66 10.67 -4.32 10.34 -5 10 C-3.625 7.5 -3.625 7.5 -2 5 C-1.34 5 -0.68 5 0 5 C-0.2784375 4.0409375 -0.2784375 4.0409375 -0.5625 3.0625 C-0.706875 2.381875 -0.85125 1.70125 -1 1 C-0.67 0.67 -0.34 0.34 0 0 Z " fill="#768396" transform="translate(121,213)"/>
<path d="M0 0 C0.66 0.33 1.32 0.66 2 1 C1.34 2.32 0.68 3.64 0 5 C0.66 5.66 1.32 6.32 2 7 C-1 9 -1 9 -5 9 C-5.33 11.31 -5.66 13.62 -6 16 C-6.66 15.67 -7.32 15.34 -8 15 C-8.31479476 10.98636675 -8.44548142 8.70004223 -6.25 5.25 C-4.26305323 3.26305323 -2.32186316 1.57555 0 0 Z " fill="#7E8A9C" transform="translate(173,211)"/>
<path d="M0 0 C2.31 0.66 4.62 1.32 7 2 C7.33 3.32 7.66 4.64 8 6 C9.32 6 10.64 6 12 6 C12 5.34 12 4.68 12 4 C14.88437779 5.29299694 16.87219421 6.65941363 19 9 C18.01 9 17.02 9 16 9 C15.01 10.485 15.01 10.485 14 12 C11.66372963 10.19117843 9.33092238 8.37818954 7 6.5625 C6.33226562 6.04623047 5.66453125 5.52996094 4.9765625 4.99804688 C3.29922866 3.68869954 1.64735006 2.34687677 0 1 C0 0.67 0 0.34 0 0 Z " fill="#5D6D83" transform="translate(184,140)"/>
<path d="M0 0 C0 0.99 0 1.98 0 3 C-1.65 3 -3.3 3 -5 3 C-5.09474609 4.16402344 -5.09474609 4.16402344 -5.19140625 5.3515625 C-6 8 -6 8 -8.21484375 9.3984375 C-9.11332031 9.72070312 -10.01179687 10.04296875 -10.9375 10.375 C-11.83339844 10.71273437 -12.72929687 11.05046875 -13.65234375 11.3984375 C-16 12 -16 12 -18 11 C-16.58510266 9.72719706 -15.16800334 8.4568417 -13.75 7.1875 C-12.96109375 6.47980469 -12.1721875 5.77210938 -11.359375 5.04296875 C-5.0494186 -0.42078488 -5.0494186 -0.42078488 0 0 Z " fill="#354968" transform="translate(228,187)"/>
<path d="M0 0 C0.33 0.66 0.66 1.32 1 2 C1.99 2.33 2.98 2.66 4 3 C-1.94 7.95 -1.94 7.95 -8 13 C-8.66 12.67 -9.32 12.34 -10 12 C-9.8125 10.1875 -9.8125 10.1875 -9 8 C-4.82142857 5 -4.82142857 5 -2 5 C-2 4.01 -2 3.02 -2 2 C-2.66 1.67 -3.32 1.34 -4 1 C-2.68 0.67 -1.36 0.34 0 0 Z " fill="#6A798E" transform="translate(82,133)"/>
<path d="M0 0 C0.66 0.33 1.32 0.66 2 1 C1.505 1.61875 1.01 2.2375 0.5 2.875 C-1.19222773 4.83880904 -1.19222773 4.83880904 -1 7 C-2.98 7 -4.96 7 -7 7 C-6.67 8.32 -6.34 9.64 -6 11 C-7.98 12.32 -9.96 13.64 -12 15 C-12.33 14.01 -12.66 13.02 -13 12 C-9.48488086 6.8974077 -5.042208 3.52829443 0 0 Z " fill="#304567" transform="translate(48,158)"/>
<path d="M0 0 C-3.96 3.3 -7.92 6.6 -12 10 C-12.66 9.67 -13.32 9.34 -14 9 C-13.34 7.35 -12.68 5.7 -12 4 C-12.66 3.67 -13.32 3.34 -14 3 C-12.42274653 2.29866401 -10.83788667 1.614417 -9.25 0.9375 C-7.92742187 0.36322266 -7.92742187 0.36322266 -6.578125 -0.22265625 C-4 -1 -4 -1 0 0 Z " fill="#7B879A" transform="translate(222,196)"/>
<path d="M0 0 C3.43322234 -0.42039457 5.9997506 -0.60825977 9.0234375 1.23046875 C10.85761588 2.74647333 12.51181996 4.14090578 14 6 C14 6.99 14 7.98 14 9 C12.68 9 11.36 9 10 9 C9.67 7.68 9.34 6.36 9 5 C8.2575 4.9175 7.515 4.835 6.75 4.75 C3.48778646 3.8603054 2.19045122 2.51496251 0 0 Z " fill="#34486C" transform="translate(182,137)"/>
<path d="M0 0 C1.60031344 3.20062687 0.03173691 5.72271806 -1 9 C-3.8125 9.625 -3.8125 9.625 -7 10 C-7.99 9.34 -8.98 8.68 -10 8 C-6.7 5.36 -3.4 2.72 0 0 Z " fill="#50617C" transform="translate(90,125)"/>
<path d="M0 0 C0.66 0.33 1.32 0.66 2 1 C3.01333088 4.42973527 3.29881786 6.30275832 1.875 9.625 C-0.17610034 12.22306043 -2.3059438 14.08580217 -5 16 C-5.33 16 -5.66 16 -6 16 C-5.4140625 9.84765625 -5.4140625 9.84765625 -5 8 C-4.34 7.67 -3.68 7.34 -3 7 C-3 7.66 -3 8.32 -3 9 C-2.01 9 -1.02 9 0 9 C0 6.03 0 3.06 0 0 Z " fill="#7D8999" transform="translate(96,116)"/>
<path d="M0 0 C0.33 0.66 0.66 1.32 1 2 C1.66 2 2.32 2 3 2 C3 3.32 3 4.64 3 6 C2.01 6 1.02 6 0 6 C0.33 6.66 0.66 7.32 1 8 C0.67 8.66 0.34 9.32 0 10 C-0.66 10 -1.32 10 -2 10 C-2.4021875 11.7015625 -2.4021875 11.7015625 -2.8125 13.4375 C-3.204375 14.613125 -3.59625 15.78875 -4 17 C-4.99 17.33 -5.98 17.66 -7 18 C-5.26375242 11.5811453 -3.14819255 5.86215164 0 0 Z " fill="#3A4F6D" transform="translate(121,208)"/>
<path d="M0 0 C0.66 0.33 1.32 0.66 2 1 C1.39461212 4.35951302 0.56675919 7.44884363 -0.62890625 10.64453125 C-0.94150391 11.48564453 -1.25410156 12.32675781 -1.57617188 13.19335938 C-2.0644043 14.48983398 -2.0644043 14.48983398 -2.5625 15.8125 C-3.0565332 17.13797852 -3.0565332 17.13797852 -3.56054688 18.49023438 C-4.37034601 20.66143495 -5.18358893 22.83127889 -6 25 C-6.33 25 -6.66 25 -7 25 C-7 21.7 -7 18.4 -7 15 C-6.01 14.67 -5.02 14.34 -4 14 C-3.34 10.7 -2.68 7.4 -2 4 C-1.34 4 -0.68 4 0 4 C0 2.68 0 1.36 0 0 Z " fill="#A0A8B1" transform="translate(137,174)"/>
<path d="M0 0 C0.66 0 1.32 0 2 0 C1.67 7.26 1.34 14.52 1 22 C0.34 22 -0.32 22 -1 22 C-2.30434839 14.30434453 -1.42924436 7.64232315 0 0 Z " fill="#E6E7E5" transform="translate(699,154)"/>
<path d="M0 0 C0.66 0.33 1.32 0.66 2 1 C2.51137226 7.90352555 0.86964374 12.74827614 -2 19 C-2.33 19 -2.66 19 -3 19 C-3 17.35 -3 15.7 -3 14 C-4.32 14.33 -5.64 14.66 -7 15 C-6.34 12.69 -5.68 10.38 -5 8 C-4.01 8.66 -3.02 9.32 -2 10 C-1.67 9.34 -1.34 8.68 -1 8 C-0.34 8 0.32 8 1 8 C0.67 5.36 0.34 2.72 0 0 Z " fill="#7F8A9C" transform="translate(169,86)"/>
<path d="M0 0 C0.69738281 0.05671875 1.39476562 0.1134375 2.11328125 0.171875 C3.82639312 0.31267872 5.53834611 0.46745972 7.25 0.625 C7.25 2.275 7.25 3.925 7.25 5.625 C6.92 4.635 6.59 3.645 6.25 2.625 C1.3 2.955 -3.65 3.285 -8.75 3.625 C-8.75 4.615 -8.75 5.605 -8.75 6.625 C-9.41 6.625 -10.07 6.625 -10.75 6.625 C-11.08 4.975 -11.41 3.325 -11.75 1.625 C-7.96332311 -0.93198285 -4.3377666 -0.40999684 0 0 Z " fill="#ECECEA" transform="translate(981.75,234.375)"/>
<path d="M0 0 C2.31 1.65 4.62 3.3 7 5 C6.649375 5.61875 6.29875 6.2375 5.9375 6.875 C5.628125 7.57625 5.31875 8.2775 5 9 C5.33 9.66 5.66 10.32 6 11 C2.05860922 9.33248852 -0.7892812 6.77289351 -4 4 C-3.34 3.67 -2.68 3.34 -2 3 C-1.34 3.33 -0.68 3.66 0 4 C0 2.68 0 1.36 0 0 Z " fill="#65748C" transform="translate(61,204)"/>
<path d="M0 0 C0.103125 0.61875 0.20625 1.2375 0.3125 1.875 C0.87525373 4.36526484 0.87525373 4.36526484 4 6 C3.34 8.31 2.68 10.62 2 13 C1.34 13 0.68 13 0 13 C0 12.34 0 11.68 0 11 C-1.98 11.99 -1.98 11.99 -4 13 C-3.40895235 8.15340923 -2.02055843 4.39251833 0 0 Z " fill="#6C788E" transform="translate(115,188)"/>
<path d="M0 0 C1.65 0.99 3.3 1.98 5 3 C4.01 6.3 3.02 9.6 2 13 C1.67 11.68 1.34 10.36 1 9 C0.34 9 -0.32 9 -1 9 C-2.0326802 6.21176345 -2.04509293 5.1322726 -1.0625 2.25 C-0.711875 1.5075 -0.36125 0.765 0 0 Z " fill="#546581" transform="translate(123,201)"/>
<path d="M0 0 C0.66 0.33 1.32 0.66 2 1 C2 1.66 2 2.32 2 3 C3.65 3.33 5.3 3.66 7 4 C7.33 5.65 7.66 7.3 8 9 C9.32 9 10.64 9 12 9 C11.67 9.66 11.34 10.32 11 11 C5.80177328 9.63855967 2.90456127 7.53269829 -1 4 C-0.67 2.68 -0.34 1.36 0 0 Z " fill="#36496B" transform="translate(64,193)"/>
<path d="M0 0 C0.99 0.33 1.98 0.66 3 1 C2.82374165 3.37948772 2.30280227 4.70225849 0.59765625 6.37890625 C-0.90649092 7.62115486 -2.45129851 8.81376056 -4 10 C-4.99 9.01 -5.98 8.02 -7 7 C-4.66666667 4.66666667 -2.33333333 2.33333333 0 0 Z " fill="#364C6D" transform="translate(34,155)"/>
<path d="M0 0 C3.2826932 1.49076434 5.93077441 3.38620321 8.75 5.625 C9.94882813 6.57246094 9.94882813 6.57246094 11.171875 7.5390625 C11.77515625 8.02117187 12.3784375 8.50328125 13 9 C11.68 9.33 10.36 9.66 9 10 C8.67 9.01 8.34 8.02 8 7 C7.01 7.33 6.02 7.66 5 8 C4.01 7.34 3.02 6.68 2 6 C1.01 6 0.02 6 -1 6 C-2.6875 4.5 -2.6875 4.5 -4 3 C-1.525 3.495 -1.525 3.495 1 4 C0.67 2.68 0.34 1.36 0 0 Z " fill="#606F88" transform="translate(227,153)"/>
<path d="M0 0 C6.42857143 4.14285714 6.42857143 4.14285714 9 7 C7.35 7.33 5.7 7.66 4 8 C4.33 8.66 4.66 9.32 5 10 C1.18315774 8.44499019 -1.19195732 5.96404505 -4 3 C-2.68 3.33 -1.36 3.66 0 4 C0 2.68 0 1.36 0 0 Z " fill="#475977" transform="translate(179,130)"/>
<path d="M0 0 C0.33 0.99 0.66 1.98 1 3 C-4.94 7.95 -4.94 7.95 -11 13 C-11.66 12.67 -12.32 12.34 -13 12 C-12.67 10.68 -12.34 9.36 -12 8 C-10.68 8 -9.36 8 -8 8 C-8 7.01 -8 6.02 -8 5 C-7.34 5 -6.68 5 -6 5 C-5.67 4.01 -5.34 3.02 -5 2 C-2 0 -2 0 0 0 Z " fill="#748196" transform="translate(202,208)"/>
<path d="M0 0 C0 0.99 0 1.98 0 3 C-1.7015625 3.8353125 -1.7015625 3.8353125 -3.4375 4.6875 C-6.54120817 6.3829961 -6.54120817 6.3829961 -7.8125 9.6875 C-7.874375 10.450625 -7.93625 11.21375 -8 12 C-8.99 12.495 -8.99 12.495 -10 13 C-10.66 12.34 -11.32 11.68 -12 11 C-10.53404095 5.46193247 -5.96377539 0 0 0 Z " fill="#425570" transform="translate(80,135)"/>
<path d="M0 0 C-0.29899215 3.58790575 -0.76986601 4.78166776 -3.4375 7.3125 C-6 9 -6 9 -8 9 C-8 8.34 -8 7.68 -8 7 C-8.66 6.67 -9.32 6.34 -10 6 C-8.90398831 4.99106869 -7.79786082 3.99311775 -6.6875 3 C-6.07261719 2.443125 -5.45773438 1.88625 -4.82421875 1.3125 C-3 0 -3 0 0 0 Z " fill="#31466A" transform="translate(75,125)"/>
<path d="M0 0 C0.144375 0.598125 0.28875 1.19625 0.4375 1.8125 C0.8872439 3.56150404 1.42892341 5.28677023 2 7 C3.2077558 10.62326739 2.54311128 11.64146369 1 15 C0.01 15 -0.98 15 -2 15 C-3.1171875 13.359375 -3.1171875 13.359375 -4 11 C-3.3203125 8.203125 -3.3203125 8.203125 -2.125 5.25 C-1.73570313 4.26515625 -1.34640625 3.2803125 -0.9453125 2.265625 C-0.63335937 1.51796875 -0.32140625 0.7703125 0 0 Z " fill="#64758B" transform="translate(105,214)"/>
<path d="M0 0 C-0.50298788 4.40114397 -2.08772731 6.71195019 -5 10 C-5.66 9.67 -6.32 9.34 -7 9 C-7 8.01 -7 7.02 -7 6 C-7.99 5.67 -8.98 5.34 -10 5 C-8.90241493 4.15801693 -7.79664683 3.32669329 -6.6875 2.5 C-6.07261719 2.0359375 -5.45773438 1.571875 -4.82421875 1.09375 C-3 0 -3 0 0 0 Z " fill="#4F617C" transform="translate(210,200)"/>
<path d="M0 0 C0.33 0.99 0.66 1.98 1 3 C-2.87564767 6.61139896 -2.87564767 6.61139896 -5 8 C-7.375 7.8125 -7.375 7.8125 -9 7 C-7.16766277 2.5718517 -4.96404317 0 0 0 Z " fill="#31496A" transform="translate(181,209)"/>
<path d="M0 0 C0.66 0 1.32 0 2 0 C2.33 1.32 2.66 2.64 3 4 C0.03 6.475 0.03 6.475 -3 9 C-4.32 8.34 -5.64 7.68 -7 7 C-4.66666667 4.66666667 -2.33333333 2.33333333 0 0 Z " fill="#32496B" transform="translate(53,140)"/>
<path d="M0 0 C0.66 0.66 1.32 1.32 2 2 C0.78763672 2.58007812 0.78763672 2.58007812 -0.44921875 3.171875 C-1.51785156 3.69265625 -2.58648438 4.2134375 -3.6875 4.75 C-4.74324219 5.26046875 -5.79898438 5.7709375 -6.88671875 6.296875 C-12.03134094 9.11124799 -15.93122495 12.81497423 -20 17 C-18.63278957 11.36025699 -14.516791 8.26130139 -10 5 C-6.7409591 3.15290153 -3.42204302 1.52168716 0 0 Z " fill="#E4E5E3" transform="translate(728,121)"/>
<path d="M0 0 C0.99 0.33 1.98 0.66 3 1 C1.64615385 8.38461538 1.64615385 8.38461538 -1.625 11.5 C-2.40875 11.995 -3.1925 12.49 -4 13 C-3.40546697 3.40546697 -3.40546697 3.40546697 0 0 Z " fill="#2F4566" transform="translate(151,132)"/>
<path d="M0 0 C1.4800841 0.11362262 2.95910074 0.24122908 4.4375 0.375 C5.26121094 0.44460937 6.08492188 0.51421875 6.93359375 0.5859375 C7.95646484 0.79089844 7.95646484 0.79089844 9 1 C10.50662097 4.01324195 10.17770373 6.68286377 10 10 C9.34 10.66 8.68 11.32 8 12 C8 9.69 8 7.38 8 5 C7.236875 4.9175 6.47375 4.835 5.6875 4.75 C2.47626739 3.85384206 1.70625501 2.78388975 0 0 Z " fill="#5A6983" transform="translate(88,216)"/>
<path d="M0 0 C2.71675995 0.36712972 4.61063713 0.72744599 6.875 2.3125 C8 4 8 4 7.6875 6.1875 C7.3471875 7.0846875 7.3471875 7.0846875 7 8 C1.25 5.375 1.25 5.375 -1 2 C-0.67 1.34 -0.34 0.68 0 0 Z " fill="#32486B" transform="translate(27,179)"/>
<path d="M0 0 C0.99 0 1.98 0 3 0 C2.58846263 4.97093824 2.20399168 9.44508386 0 14 C-1.8759207 10.85909063 -2.18257272 8.92116258 -1.6875 5.3125 C-1.58824219 4.52488281 -1.48898438 3.73726562 -1.38671875 2.92578125 C-1 1 -1 1 0 0 Z " fill="#32496A" transform="translate(132,148)"/>
<path d="M0 0 C1.32 0 2.64 0 4 0 C3.49287967 3.71888239 2.88391785 6.73454239 1 10 C0.01 9.67 -0.98 9.34 -2 9 C-1.125 1.125 -1.125 1.125 0 0 Z " fill="#33496A" transform="translate(107,213)"/>
<path d="M0 0 C3.465 1.485 3.465 1.485 7 3 C7 4.65 7 6.3 7 8 C4.69 7.34 2.38 6.68 0 6 C0 4.02 0 2.04 0 0 Z " fill="#485B76" transform="translate(54,200)"/>
<path d="M0 0 C0.66 0.33 1.32 0.66 2 1 C1.360625 1.78375 0.72125 2.5675 0.0625 3.375 C-1.98142313 5.79539281 -1.98142313 5.79539281 -3 8 C-2.34 8.33 -1.68 8.66 -1 9 C-1.99 9.66 -2.98 10.32 -4 11 C-4 10.01 -4 9.02 -4 8 C-7.0831351 9.19899698 -10.06279492 10.47700477 -13 12 C-9.48451346 6.95604105 -4.88263123 3.62024153 0 0 Z " fill="#8A94A0" transform="translate(217,176)"/>
<path d="M0 0 C1.98 0.495 1.98 0.495 4 1 C4.0825 1.78375 4.165 2.5675 4.25 3.375 C4.72806339 6.14749104 4.72806339 6.14749104 7.0625 7.3125 C7.701875 7.539375 8.34125 7.76625 9 8 C8.67 8.66 8.34 9.32 8 10 C4.56404834 8.47291037 1.88087546 6.40072955 -1 4 C-0.67 2.68 -0.34 1.36 0 0 Z " fill="#364A6B" transform="translate(47,180)"/>
<path d="M0 0 C0.66 0.33 1.32 0.66 2 1 C0.83620352 4.31234384 -0.11238786 6.8898219 -3 9 C-4.32 9 -5.64 9 -7 9 C-5.64978174 4.58110387 -3.73884332 2.65654657 0 0 Z " fill="#334668" transform="translate(221,175)"/>
<path d="M0 0 C-1.625 5.75 -1.625 5.75 -5 8 C-7.19140625 8.30078125 -7.19140625 8.30078125 -9.5625 8.3125 C-10.34753906 8.32925781 -11.13257812 8.34601563 -11.94140625 8.36328125 C-12.96041016 8.18345703 -12.96041016 8.18345703 -14 8 C-14.66 7.01 -15.32 6.02 -16 5 C-12.04 5.33 -8.08 5.66 -4 6 C-4 4.35 -4 2.7 -4 1 C-2 0 -2 0 0 0 Z " fill="#9AA1AF" transform="translate(109,253)"/>
<path d="M0 0 C0.66 0.33 1.32 0.66 2 1 C2 3 2 5 2 7 C0.68 7.33 -0.64 7.66 -2 8 C-2 7.34 -2 6.68 -2 6 C-3.98 6.66 -5.96 7.32 -8 8 C-5.58443874 4.80800833 -3.31996462 2.25283313 0 0 Z " fill="#707E92" transform="translate(183,203)"/>
<path d="M0 0 C0.33 0.66 0.66 1.32 1 2 C1.66 2 2.32 2 3 2 C1.50164772 6.66154042 -1.88463591 7.86610751 -6 10 C-6.33 8.68 -6.66 7.36 -7 6 C-5.1875 4.9375 -5.1875 4.9375 -3 4 C-2.01 4.33 -1.02 4.66 0 5 C0 4.01 0 3.02 0 2 C-1.32 1.67 -2.64 1.34 -4 1 C-2.68 0.67 -1.36 0.34 0 0 Z " fill="#66758D" transform="translate(228,185)"/>
<path d="M0 0 C1.32 0 2.64 0 4 0 C4 1.32 4 2.64 4 4 C1 6.25 1 6.25 -2 8 C-2.66 7.67 -3.32 7.34 -4 7 C-2.92598892 4.08482708 -2.22189824 2.22189824 0 0 Z " fill="#34496B" transform="translate(209,184)"/>
<path d="M0 0 C0.99 0.33 1.98 0.66 3 1 C2.67 3.64 2.34 6.28 2 9 C0.68 9.33 -0.64 9.66 -2 10 C-1.85950482 8.52031676 -1.71245174 7.04125484 -1.5625 5.5625 C-1.48128906 4.73878906 -1.40007812 3.91507813 -1.31640625 3.06640625 C-1 1 -1 1 0 0 Z " fill="#344A68" transform="translate(140,127)"/>
<path d="M0 0 C1.2077558 3.62326739 0.54311128 4.64146369 -1 8 C-1.99 8 -2.98 8 -4 8 C-4.33 8.66 -4.66 9.32 -5 10 C-5.99 9.34 -6.98 8.68 -8 8 C-6 5 -6 5 -3 3 C-2.67 2.34 -2.34 1.68 -2 1 C-1.34 1.33 -0.68 1.66 0 2 C0 1.34 0 0.68 0 0 Z " fill="#617089" transform="translate(111,245)"/>
<path d="M0 0 C0.33 0 0.66 0 1 0 C1.05422947 1.4370809 1.09289723 2.87475462 1.125 4.3125 C1.14820312 5.11300781 1.17140625 5.91351563 1.1953125 6.73828125 C1 9 1 9 -1 12 C-1.33 12.99 -1.66 13.98 -2 15 C-2.99 15.33 -3.98 15.66 -5 16 C-4.39363767 10.23955788 -2.24341721 5.27985631 0 0 Z " fill="#929DAA" transform="translate(121,172)"/>
<path d="M0 0 C2.12472576 -0.05386629 4.24983652 -0.09273071 6.375 -0.125 C7.55835938 -0.14820313 8.74171875 -0.17140625 9.9609375 -0.1953125 C13 0 13 0 15 2 C14.34 2.66 13.68 3.32 13 4 C10.24410223 3.98252073 7.61213324 3.86136729 4.875 3.625 C4.12089844 3.56828125 3.36679687 3.5115625 2.58984375 3.453125 C0.72581904 3.3115535 -1.13721137 3.15700041 -3 3 C-2.01 2.67 -1.02 2.34 0 2 C0 1.34 0 0.68 0 0 Z " fill="#EDEDEB" transform="translate(1005,234)"/>
<path d="M0 0 C0.66 0.33 1.32 0.66 2 1 C0.37561031 2.79222332 -1.24948446 4.5837983 -2.875 6.375 C-3.33519531 6.88289062 -3.79539062 7.39078125 -4.26953125 7.9140625 C-6.14601858 9.98091811 -8.02570548 12.02570548 -10 14 C-10.33 13.34 -10.66 12.68 -11 12 C-9.92338719 10.5574598 -8.83839897 9.12116839 -7.75 7.6875 C-6.84507812 6.48673828 -6.84507812 6.48673828 -5.921875 5.26171875 C-4.09729864 3.11450388 -2.31702954 1.58398701 0 0 Z " fill="#E9E9E7" transform="translate(366,164)"/>
<path d="M0 0 C0.66 0.33 1.32 0.66 2 1 C1.01 2.485 1.01 2.485 0 4 C0.66 4.33 1.32 4.66 2 5 C1.67 5.99 1.34 6.98 1 8 C-0.32 8 -1.64 8 -3 8 C-3 7.34 -3 6.68 -3 6 C-4.65 6.66 -6.3 7.32 -8 8 C-5.58443874 4.80800833 -3.31996462 2.25283313 0 0 Z " fill="#758295" transform="translate(47,143)"/>
<path d="M0 0 C0.99 0.33 1.98 0.66 3 1 C2.6875 2.875 2.6875 2.875 2 5 C-1 7 -1 7 -3.6875 6.625 C-4.450625 6.41875 -5.21375 6.2125 -6 6 C-4 4 -2 2 0 0 Z " fill="#344767" transform="translate(198,193)"/>
<path d="M0 0 C3.98381075 2.16264012 6.88983545 4.71211176 10 8 C5.25 7.25 5.25 7.25 3 5 C2.67 5.99 2.34 6.98 2 8 C1.01 7.34 0.02 6.68 -1 6 C-0.67 4.02 -0.34 2.04 0 0 Z " fill="#727E94" transform="translate(61,189)"/>
<path d="M0 0 C0.99 0.33 1.98 0.66 3 1 C3 2.98 3 4.96 3 7 C2.34 7 1.68 7 1 7 C0.67 7.99 0.34 8.98 0 10 C-0.66 9.34 -1.32 8.68 -2 8 C-1.42307692 1.42307692 -1.42307692 1.42307692 0 0 Z " fill="#324667" transform="translate(167,87)"/>
<path d="M0 0 C0.66 0.99 1.32 1.98 2 3 C1.25 4.9375 1.25 4.9375 0 7 C-2.125 7.75 -2.125 7.75 -4 8 C-4.66 7.01 -5.32 6.02 -6 5 C-4.02 3.35 -2.04 1.7 0 0 Z " fill="#334867" transform="translate(189,200)"/>
<path d="M0 0 C0.99 0 1.98 0 3 0 C2.75881648 3.25597758 1.47775788 4.7276304 -0.875 6.8125 C-1.90625 7.534375 -2.9375 8.25625 -4 9 C-4.99 8.67 -5.98 8.34 -7 8 C-6.34 7.34 -5.68 6.68 -5 6 C-5 5.01 -5 4.02 -5 3 C-3.02 3 -1.04 3 1 3 C0.67 2.01 0.34 1.02 0 0 Z " fill="#65758D" transform="translate(46,162)"/>
<path d="M0 0 C4.2026393 2.63886654 7.56638098 5.36440339 11 9 C8.5625 8.625 8.5625 8.625 6 8 C5.67 7.34 5.34 6.68 5 6 C1.97065509 5.34227572 1.97065509 5.34227572 -1 5 C-0.67 3.35 -0.34 1.7 0 0 Z " fill="#7C879B" transform="translate(191,124)"/>
<path d="M0 0 C0.99 0 1.98 0 3 0 C3 1.98 3 3.96 3 6 C2.01 6.495 2.01 6.495 1 7 C-0.34275169 7.98731742 -1.67732273 8.98594743 -3 10 C-2.49287967 6.28111761 -1.88391785 3.26545761 0 0 Z " fill="#324967" transform="translate(108,241)"/>
<path d="M0 0 C0.75059087 2.33517159 1.09210304 3.66228886 0.4375 6.0625 C0.293125 6.701875 0.14875 7.34125 0 8 C0.99 9.485 0.99 9.485 2 11 C1.67 11.66 1.34 12.32 1 13 C-0.65 13 -2.3 13 -4 13 C-3.71517632 11.58194169 -3.42181856 10.16559621 -3.125 8.75 C-2.96257812 7.96109375 -2.80015625 7.1721875 -2.6328125 6.359375 C-2.00849925 4.03168856 -1.15161458 2.10968048 0 0 Z " fill="#8693A4" transform="translate(110,201)"/>
<path d="M0 0 C0.99 0 1.98 0 3 0 C3 0.66 3 1.32 3 2 C4.32 2.33 5.64 2.66 7 3 C7 4.32 7 5.64 7 7 C4.03824877 6.38722388 2.61941217 5.74627478 0 4 C0 2.68 0 1.36 0 0 Z " fill="#364C6C" transform="translate(77,205)"/>
<path d="M0 0 C1.65 0.99 3.3 1.98 5 3 C4.01 3.33 3.02 3.66 2 4 C2 4.99 2 5.98 2 7 C2.66 7 3.32 7 4 7 C3.67 7.66 3.34 8.32 3 9 C0.69 7.35 -1.62 5.7 -4 4 C-2.68 2.68 -1.36 1.36 0 0 Z " fill="#657489" transform="translate(213,157)"/>
<path d="M0 0 C1.32 0 2.64 0 4 0 C3.43628586 3.26954202 2.50037734 4.82575883 0 7 C-0.99 6.67 -1.98 6.34 -3 6 C-2.42655063 3.13275314 -2.1385485 2.1385485 0 0 Z " fill="#30496A" transform="translate(62,133)"/>
<path d="M0 0 C1.32 0.66 2.64 1.32 4 2 C4 2.33 4 2.66 4 3 C3.37351562 3.09796875 2.74703125 3.1959375 2.1015625 3.296875 C1.28429687 3.44640625 0.46703125 3.5959375 -0.375 3.75 C-1.18710937 3.88921875 -1.99921875 4.0284375 -2.8359375 4.171875 C-5.14954713 4.81283498 -5.14954713 4.81283498 -6.25 6.9375 C-6.97966117 8.94406821 -7.5527508 10.91283705 -8 13 C-8.8125 10.3125 -8.8125 10.3125 -9 7 C-6.8125 4.125 -6.8125 4.125 -4 2 C-2.68 2 -1.36 2 0 2 C0 1.34 0 0.68 0 0 Z " fill="#E2E3E0" transform="translate(847,264)"/>
<path d="M0 0 C3.3 0 6.6 0 10 0 C9 3 9 3 6.625 4.1875 C4 5 4 5 1 5 C1.33 4.01 1.66 3.02 2 2 C1.34 1.34 0.68 0.68 0 0 Z " fill="#EDEDED" transform="translate(954,261)"/>
<path d="M0 0 C3 1 3 1 5 3 C4.54545455 8.45454545 4.54545455 8.45454545 2 11 C2 9.35 2 7.7 2 6 C1.01 6 0.02 6 -1 6 C-0.67 4.02 -0.34 2.04 0 0 Z " fill="#68788F" transform="translate(137,164)"/>
<path d="M0 0 C1.46726798 3.81489674 0.43336419 6.29011622 -1 10 C-1.99 9.34 -2.98 8.68 -4 8 C-3.67 5.69 -3.34 3.38 -3 1 C-2.01 0.67 -1.02 0.34 0 0 Z " fill="#34496A" transform="translate(142,158)"/>
<path d="M0 0 C1.98 0 3.96 0 6 0 C5.39009109 3.55780196 4.4216319 6.6828589 3 10 C2.67 10 2.34 10 2 10 C2 7.69 2 5.38 2 3 C1.01 3.33 0.02 3.66 -1 4 C-0.67 2.68 -0.34 1.36 0 0 Z " fill="#738196" transform="translate(143,149)"/>
<path d="M0 0 C7.57142857 4 7.57142857 4 10 8 C7.5625 7.625 7.5625 7.625 5 7 C4.67 6.34 4.34 5.68 4 5 C3.34 5 2.68 5 2 5 C1.34 5.66 0.68 6.32 0 7 C-0.93423645 3.98968256 -1.04449911 3.13349732 0 0 Z " fill="#778294" transform="translate(212,141)"/>
<path d="M0 0 C4.16445467 0.09254344 5.72862455 0.75812188 8.875 3.5625 C9.926875 4.7690625 9.926875 4.7690625 11 6 C8.69 6.33 6.38 6.66 4 7 C4.33 5.35 4.66 3.7 5 2 C2.69 2 0.38 2 -2 2 C-1.34 1.34 -0.68 0.68 0 0 Z " fill="#8E97A5" transform="translate(172,112)"/>
<path d="M0 0 C2.31 0 4.62 0 7 0 C7.33 0.99 7.66 1.98 8 3 C5.04335481 4.4783226 2.25770263 4.06032783 -1 4 C-0.67 2.68 -0.34 1.36 0 0 Z " fill="#2F4468" transform="translate(170,114)"/>
<path d="M0 0 C0.33 0.66 0.66 1.32 1 2 C1.66 2 2.32 2 3 2 C2.67 3.65 2.34 5.3 2 7 C1.34 7 0.68 7 0 7 C0 7.66 0 8.32 0 9 C-0.99 9.33 -1.98 9.66 -3 10 C-2.25 2.25 -2.25 2.25 0 0 Z " fill="#324666" transform="translate(153,95)"/>
<path d="M0 0 C2.5 0.125 2.5 0.125 3.5 1.125 C3.54063832 2.79117115 3.542721 4.45888095 3.5 6.125 C-0.15316671 4.87523244 -1.28065836 4.45401247 -3.5 1.125 C-2.5 0.125 -2.5 0.125 0 0 Z " fill="#334A6D" transform="translate(175.5,127.875)"/>
<path d="M0 0 C0.33 0 0.66 0 1 0 C1 4.29 1 8.58 1 13 C0.01 12.67 -0.98 12.34 -2 12 C-2.28571429 3.42857143 -2.28571429 3.42857143 0 0 Z " fill="#717E8F" transform="translate(130,149)"/>
<path d="M0 0 C0.66 0 1.32 0 2 0 C3.125 5.625 3.125 5.625 2 9 C1.01 9 0.02 9 -1 9 C-0.67 6.03 -0.34 3.06 0 0 Z " fill="#304568" transform="translate(94,116)"/>
<path d="M0 0 C0.928125 0.37125 1.85625 0.7425 2.8125 1.125 C3.864375 1.41375 4.91625 1.7025 6 2 C6.99 1.34 7.98 0.68 9 0 C9.33 0.66 9.66 1.32 10 2 C9.34 2 8.68 2 8 2 C8.50603992 4.16874252 8.99983813 5.99967627 10 8 C6.05205855 6.32971708 3.18203882 3.8204435 0 1 C0 0.67 0 0.34 0 0 Z " fill="#828C9E" transform="translate(19,177)"/>
<path d="M0 0 C0.12375 0.61875 0.2475 1.2375 0.375 1.875 C0.87197356 4.19120832 0.87197356 4.19120832 3 6 C2.67 6.99 2.34 7.98 2 9 C0.35 7.68 -1.3 6.36 -3 5 C-1.125 1.125 -1.125 1.125 0 0 Z M3 3 C3.66 3 4.32 3 5 3 C5 3.66 5 4.32 5 5 C4.01 4.67 3.02 4.34 2 4 C2.33 3.67 2.66 3.34 3 3 Z " fill="#4D5F79" transform="translate(35,168)"/>
<path d="M0 0 C0.66 0.33 1.32 0.66 2 1 C1.01 2.485 1.01 2.485 0 4 C0.30840599 6.15274948 0.30840599 6.15274948 1 8 C0.01 8 -0.98 8 -2 8 C-2 7.34 -2 6.68 -2 6 C-3.98 6.66 -5.96 7.32 -8 8 C-5.33333333 5.33333333 -2.66666667 2.66666667 0 0 Z " fill="#8791A0" transform="translate(28,158)"/>
<path d="M0 0 C4.75 0.875 4.75 0.875 7 2 C7 2.99 7 3.98 7 5 C6.01 5.33 5.02 5.66 4 6 C3.34 5.67 2.68 5.34 2 5 C2 4.34 2 3.68 2 3 C1.34 3 0.68 3 0 3 C0 2.01 0 1.02 0 0 Z " fill="#334A6B" transform="translate(215,161)"/>
<path d="M0 0 C0.99 0.33 1.98 0.66 3 1 C3 1.66 3 2.32 3 3 C4.65 3.33 6.3 3.66 8 4 C8 4.66 8 5.32 8 6 C2.375 6.25 2.375 6.25 -1 4 C-0.67 2.68 -0.34 1.36 0 0 Z " fill="#324765" transform="translate(214,145)"/>
<path d="M0 0 C2.31 0.33 4.62 0.66 7 1 C7 2.65 7 4.3 7 6 C2.32307692 4.52307692 2.32307692 4.52307692 0.6875 1.875 C0.460625 1.25625 0.23375 0.6375 0 0 Z " fill="#334869" transform="translate(205,140)"/>
<path d="M0 0 C0.66 0 1.32 0 2 0 C4.125 4.625 4.125 4.625 3 8 C1.68 7.67 0.36 7.34 -1 7 C-1.04254356 5.00045254 -1.04080783 2.99958364 -1 1 C-0.67 0.67 -0.34 0.34 0 0 Z " fill="#304466" transform="translate(168,119)"/>
<path d="M0 0 C0.33 1.32 0.66 2.64 1 4 C0.34 4 -0.32 4 -1 4 C-1 5.32 -1 6.64 -1 8 C-1.99 8 -2.98 8 -4 8 C-4.33 8.66 -4.66 9.32 -5 10 C-4.50769231 3.47692308 -4.50769231 3.47692308 -1.9375 1.0625 C-0.9784375 0.5365625 -0.9784375 0.5365625 0 0 Z " fill="#304669" transform="translate(148,112)"/>
<path d="M0 0 C0.66 0.33 1.32 0.66 2 1 C1.505 1.61875 1.01 2.2375 0.5 2.875 C-1.19222773 4.83880904 -1.19222773 4.83880904 -1 7 C-3.64 7.33 -6.28 7.66 -9 8 C-6.14723863 5.06799526 -3.34920216 2.35684596 0 0 Z " fill="#3D506C" transform="translate(48,158)"/>
<path d="M0 0 C0.66 0.33 1.32 0.66 2 1 C1.67 2.32 1.34 3.64 1 5 C-0.65 5 -2.3 5 -4 5 C-3.67 6.32 -3.34 7.64 -3 9 C-3.99 8.67 -4.98 8.34 -6 8 C-5.65120368 4.74456771 -4.97866739 3.98126893 -2.4375 1.75 C-1.633125 1.1725 -0.82875 0.595 0 0 Z " fill="#354A69" transform="translate(57,151)"/>
<path d="M0 0 C0.33 0 0.66 0 1 0 C1 1.65 1 3.3 1 5 C0.01 5.495 0.01 5.495 -1 6 C-1.33 5.01 -1.66 4.02 -2 3 C-1.34 2.01 -0.68 1.02 0 0 Z M-4 4 C-3.34 4.33 -2.68 4.66 -2 5 C-2 6.32 -2 7.64 -2 9 C-2.99 9.33 -3.98 9.66 -5 10 C-5.33 9.34 -5.66 8.68 -6 8 C-5.0625 5.875 -5.0625 5.875 -4 4 Z " fill="#344669" transform="translate(158,118)"/>
<path d="M0 0 C0.66 0.33 1.32 0.66 2 1 C1.814375 1.61875 1.62875 2.2375 1.4375 2.875 C0.76313824 5.04160178 0.76313824 5.04160178 2 7 C1.01 7.33 0.02 7.66 -1 8 C-1.33 7.34 -1.66 6.68 -2 6 C-4.02463255 5.34786708 -4.02463255 5.34786708 -6 5 C-4.02 3.35 -2.04 1.7 0 0 Z " fill="#758095" transform="translate(84,114)"/>
<path d="M0 0 C3 0.1875 3 0.1875 6 1 C6.66 1.99 7.32 2.98 8 4 C7.34 4 6.68 4 6 4 C5.67 5.32 5.34 6.64 5 8 C4.34 7.67 3.68 7.34 3 7 C3.33 5.68 3.66 4.36 4 3 C1.03 2.505 1.03 2.505 -2 2 C-1.34 1.34 -0.68 0.68 0 0 Z " fill="#8692A3" transform="translate(88,112)"/>
<path d="M0 0 C2.4375 0.6875 2.4375 0.6875 5 2 C5.8125 4.625 5.8125 4.625 6 7 C3.69 6.01 1.38 5.02 -1 4 C-0.67 2.68 -0.34 1.36 0 0 Z " fill="#33486C" transform="translate(200,148)"/>
<path d="M0 0 C0.103125 0.639375 0.20625 1.27875 0.3125 1.9375 C0.539375 2.618125 0.76625 3.29875 1 4 C1.99 4.33 2.98 4.66 4 5 C3.67 6.65 3.34 8.3 3 10 C1.0625 9.1875 1.0625 9.1875 -1 8 C-2.2077558 4.37673261 -1.54311128 3.35853631 0 0 Z " fill="#788599" transform="translate(133,141)"/>
<path d="M0 0 C0.33 0 0.66 0 1 0 C1 1.65 1 3.3 1 5 C1.66 5 2.32 5 3 5 C3.33 5.99 3.66 6.98 4 8 C3.01 9.485 3.01 9.485 2 11 C1.67 10.01 1.34 9.02 1 8 C0.01 8 -0.98 8 -2 8 C-1.125 2.25 -1.125 2.25 0 0 Z " fill="#838F9F" transform="translate(141,120)"/>
<path d="M0 0 C0.33 0 0.66 0 1 0 C1.33 1.98 1.66 3.96 2 6 C0.02 6.99 0.02 6.99 -2 8 C-1.125 2.25 -1.125 2.25 0 0 Z M3 2 C3.66 3.32 4.32 4.64 5 6 C4.34 6.66 3.68 7.32 3 8 C2.61781233 6.34385343 2.28604898 4.67542976 2 3 C2.33 2.67 2.66 2.34 3 2 Z " fill="#7C889B" transform="translate(146,107)"/>
<path d="M0 0 C0.99 0 1.98 0 3 0 C2.01 3.3 1.02 6.6 0 10 C-0.33 10 -0.66 10 -1 10 C-1.02689216 8.52093108 -1.04634621 7.04172517 -1.0625 5.5625 C-1.07410156 4.73878906 -1.08570312 3.91507813 -1.09765625 3.06640625 C-1 1 -1 1 0 0 Z " fill="#7B889A" transform="translate(113,235)"/>
<path d="M0 0 C1.67542976 0.28604898 3.34385343 0.61781233 5 1 C3.52307692 5.67692308 3.52307692 5.67692308 0.875 7.3125 C-0.053125 7.6528125 -0.053125 7.6528125 -1 8 C-0.34 6.02 0.32 4.04 1 2 C0.34 1.67 -0.32 1.34 -1 1 C-0.67 0.67 -0.34 0.34 0 0 Z " fill="#66768C" transform="translate(209,198)"/>
<path d="M0 0 C0.99 0.33 1.98 0.66 3 1 C2.67 2.32 2.34 3.64 2 5 C1.67 4.34 1.34 3.68 1 3 C0.38125 3.61875 -0.2375 4.2375 -0.875 4.875 C-2.25 6.25 -3.625 7.625 -5 9 C-4.51386623 3.53099511 -4.51386623 3.53099511 -2.125 1.0625 C-1.42375 0.711875 -0.7225 0.36125 0 0 Z " fill="#304563" transform="translate(24,163)"/>
<path d="M0 0 C1.32 0.66 2.64 1.32 4 2 C3.34 3.32 2.68 4.64 2 6 C2 5.34 2 4.68 2 4 C0.35 4.33 -1.3 4.66 -3 5 C-1.125 1.125 -1.125 1.125 0 0 Z " fill="#415571" transform="translate(186,216)"/>
<path d="M0 0 C1.32 0.66 2.64 1.32 4 2 C3.01 2.495 3.01 2.495 2 3 C0.86649466 5.01669827 0.86649466 5.01669827 0 7 C-1.65 5.35 -3.3 3.7 -5 2 C-3.35 2 -1.7 2 0 2 C0 1.34 0 0.68 0 0 Z " fill="#748093" transform="translate(53,198)"/>
<path d="M0 0 C2.475 0.99 2.475 0.99 5 2 C5 2.99 5 3.98 5 5 C4.01 5.33 3.02 5.66 2 6 C1.01 5.34 0.02 4.68 -1 4 C-0.67 2.68 -0.34 1.36 0 0 Z " fill="#364C6B" transform="translate(48,195)"/>
<path d="M0 0 C3.53372712 1.96318174 6.24479785 4.04070881 9 7 C7.35 7 5.7 7 4 7 C4 6.01 4 5.02 4 4 C3.01 4.33 2.02 4.66 1 5 C0.67 3.35 0.34 1.7 0 0 Z " fill="#7F899B" transform="translate(231,156)"/>
<path d="M0 0 C0.66 0 1.32 0 2 0 C2 0.66 2 1.32 2 2 C2.66 2 3.32 2 4 2 C3.6875 3.9375 3.6875 3.9375 3 6 C2.01 6.33 1.02 6.66 0 7 C0 6.34 0 5.68 0 5 C-0.66 4.67 -1.32 4.34 -2 4 C-1.34 2.68 -0.68 1.36 0 0 Z " fill="#55657E" transform="translate(49,157)"/>
<path d="M0 0 C0.66 0.33 1.32 0.66 2 1 C1.0409375 1.86625 1.0409375 1.86625 0.0625 2.75 C-1.98223868 4.98062401 -2.58205199 6.07436391 -3 9 C-3.99 8.01 -4.98 7.02 -6 6 C-4 4 -2 2 0 0 Z " fill="#314665" transform="translate(33,156)"/>
<path d="M0 0 C1.20153575 3.97365037 0.637386 6.15214289 -1 10 C-2.625 11.875 -2.625 11.875 -4 13 C-3.27991594 8.39146203 -1.68704061 4.32762591 0 0 Z " fill="#AEB4BC" transform="translate(138,128)"/>
<path d="M0 0 C-0.33 1.98 -0.66 3.96 -1 6 C-3.97 5.505 -3.97 5.505 -7 5 C-2.25 0 -2.25 0 0 0 Z " fill="#384C6A" transform="translate(87,129)"/>
<path d="M0 0 C0.66 0.33 1.32 0.66 2 1 C-0.31 3.64 -2.62 6.28 -5 9 C-5.33 8.34 -5.66 7.68 -6 7 C-2.25 1.125 -2.25 1.125 0 0 Z " fill="#E9E9E7" transform="translate(279,126)"/>
<path d="M0 0 C1.3340394 4.00211819 0.40012984 6.07963644 -1 10 C-2.625 11.9375 -2.625 11.9375 -4 13 C-3.40895235 8.15340923 -2.02055843 4.39251833 0 0 Z " fill="#BBBFC6" transform="translate(151,94)"/>
<path d="M0 0 C0.99 0.66 1.98 1.32 3 2 C-3.625 5.125 -3.625 5.125 -7 4 C-7 3.34 -7 2.68 -7 2 C-4.69 2 -2.38 2 0 2 C0 1.34 0 0.68 0 0 Z " fill="#8E97A2" transform="translate(93,227)"/>
<path d="M0 0 C4.875 2.75 4.875 2.75 6 5 C3.03 5 0.06 5 -3 5 C-3.33 4.34 -3.66 3.68 -4 3 C-2.68 3 -1.36 3 0 3 C0 2.01 0 1.02 0 0 Z " fill="#6F7D92" transform="translate(90,212)"/>
<path d="M0 0 C0.99 0 1.98 0 3 0 C2.25 6.625 2.25 6.625 0 10 C0 6.7 0 3.4 0 0 Z " fill="#798599" transform="translate(130,189)"/>
<path d="M0 0 C2.475 0.99 2.475 0.99 5 2 C5 2.99 5 3.98 5 5 C4.01 5.495 4.01 5.495 3 6 C3 5.34 3 4.68 3 4 C1.68 3.67 0.36 3.34 -1 3 C-0.67 2.01 -0.34 1.02 0 0 Z " fill="#2F4364" transform="translate(21,174)"/>
<path d="M0 0 C0.99 0.33 1.98 0.66 3 1 C3.33 1.99 3.66 2.98 4 4 C3.34 4.66 2.68 5.32 2 6 C0.68 4.68 -0.64 3.36 -2 2 C-1.34 1.34 -0.68 0.68 0 0 Z " fill="#324565" transform="translate(76,217)"/>
<path d="M0 0 C1.32 0.66 2.64 1.32 4 2 C3.01 2.495 3.01 2.495 2 3 C0.86649466 5.01669827 0.86649466 5.01669827 0 7 C-1.32 5.68 -2.64 4.36 -4 3 C-2.68 3.33 -1.36 3.66 0 4 C0 2.68 0 1.36 0 0 Z " fill="#6D7C92" transform="translate(39,187)"/>
<path d="M0 0 C1.65 0.99 3.3 1.98 5 3 C2 4.5 2 4.5 -1 6 C-1.99 5.01 -2.98 4.02 -4 3 C-3.01 2.67 -2.02 2.34 -1 2 C-0.67 1.34 -0.34 0.68 0 0 Z " fill="#67758B" transform="translate(46,177)"/>
<path d="M0 0 C6.0546875 -0.1953125 6.0546875 -0.1953125 8 0 C8.66 0.66 9.32 1.32 10 2 C8.35 2.33 6.7 2.66 5 3 C5.33 3.66 5.66 4.32 6 5 C2.83884224 3.63016497 2.0072908 3.0109362 0 0 Z " fill="#707E93" transform="translate(178,135)"/>
<path d="M0 0 C0.33 1.32 0.66 2.64 1 4 C0.34 4 -0.32 4 -1 4 C-1 4.66 -1 5.32 -1 6 C-1.99 6 -2.98 6 -4 6 C-3.6875 4.125 -3.6875 4.125 -3 2 C-2.01 1.34 -1.02 0.68 0 0 Z " fill="#304566" transform="translate(117,224)"/>
<path d="M0 0 C3.36591866 1.44253657 5.51047079 3.33264727 8 6 C5.69 5.67 3.38 5.34 1 5 C0.67 3.35 0.34 1.7 0 0 Z " fill="#8794A4" transform="translate(71,197)"/>
<path d="M0 0 C0.99 0.33 1.98 0.66 3 1 C3 1.99 3 2.98 3 4 C4.32 4 5.64 4 7 4 C6.67 4.66 6.34 5.32 6 6 C3.97954558 5.39816251 1.97888961 4.72693904 0 4 C-0.33 3.34 -0.66 2.68 -1 2 C-0.67 1.34 -0.34 0.68 0 0 Z " fill="#2D4266" transform="translate(69,198)"/>
<path d="M0 0 C2.86724686 0.57344937 3.8614515 0.8614515 6 3 C3.625 4.0625 3.625 4.0625 1 5 C0.34 4.67 -0.32 4.34 -1 4 C-0.67 2.68 -0.34 1.36 0 0 Z " fill="#3E4F6F" transform="translate(41,190)"/>
<path d="M0 0 C0.99 0.33 1.98 0.66 3 1 C3.875 2.875 3.875 2.875 4 5 C2.5625 6.75 2.5625 6.75 1 8 C1 6.35 1 4.7 1 3 C0.34 3 -0.32 3 -1 3 C-0.67 2.01 -0.34 1.02 0 0 Z " fill="#2D456B" transform="translate(224,167)"/>
<path d="M0 0 C1.65 0.99 3.3 1.98 5 3 C1.8035914 4.06546953 -0.65747276 4.07427838 -4 4 C-4.33 3.34 -4.66 2.68 -5 2 C-3.35 2 -1.7 2 0 2 C0 1.34 0 0.68 0 0 Z " fill="#586883" transform="translate(222,164)"/>
<path d="M0 0 C0.66 0 1.32 0 2 0 C2 0.66 2 1.32 2 2 C2.66 2.33 3.32 2.66 4 3 C3.01 3.99 2.02 4.98 1 6 C0.01 5.67 -0.98 5.34 -2 5 C-2 4.34 -2 3.68 -2 3 C-1.34 3 -0.68 3 0 3 C0 2.01 0 1.02 0 0 Z " fill="#354868" transform="translate(42,149)"/>
<path d="M0 0 C3.375 0.6875 3.375 0.6875 7 2 C8.4375 4.625 8.4375 4.625 9 7 C5.18315774 5.44499019 2.80804268 2.96404505 0 0 Z " fill="#949DAB" transform="translate(184,140)"/>
<path d="M0 0 C2.29633824 3.44450737 2.54016485 5.93812283 3 10 C0.51559898 7.83965128 -0.58789525 6.29683798 -1 3 C-0.67 2.01 -0.34 1.02 0 0 Z " fill="#E6E7E5" transform="translate(975,248)"/>
<path d="M0 0 C1.65 0.99 3.3 1.98 5 3 C4.67 4.65 4.34 6.3 4 8 C3.67 8 3.34 8 3 8 C3 6.35 3 4.7 3 3 C1.68 3.33 0.36 3.66 -1 4 C-0.67 2.68 -0.34 1.36 0 0 Z " fill="#6A788E" transform="translate(123,201)"/>
<path d="M0 0 C1.2065625 0.0309375 1.2065625 0.0309375 2.4375 0.0625 C0.81410195 1.77134005 -0.85569053 3.43696717 -2.5625 5.0625 C-3.2225 5.0625 -3.8825 5.0625 -4.5625 5.0625 C-3.43829114 0.08386076 -3.43829114 0.08386076 0 0 Z " fill="#828C9E" transform="translate(237.5625,180.9375)"/>
<path d="M0 0 C1.65 0.33 3.3 0.66 5 1 C4.34 2.32 3.68 3.64 3 5 C1.68 4.34 0.36 3.68 -1 3 C-0.67 2.01 -0.34 1.02 0 0 Z " fill="#314669" transform="translate(41,176)"/>
<path d="M0 0 C0.66 0.66 1.32 1.32 2 2 C-0.90092502 3.93395001 -1.89674737 4.30131941 -5.1875 4.625 C-6.445625 4.74875 -7.70375 4.8725 -9 5 C-6.14693203 2.67527795 -3.45925163 1.2491742 0 0 Z " fill="#E3E3E1" transform="translate(377,159)"/>
<path d="M0 0 C0.99 0 1.98 0 3 0 C3 0.99 3 1.98 3 3 C1.02 3.66 -0.96 4.32 -3 5 C-1.125 1.125 -1.125 1.125 0 0 Z " fill="#314468" transform="translate(77,135)"/>
<path d="M0 0 C4.875 2.75 4.875 2.75 6 5 C4.02 5 2.04 5 0 5 C0 3.35 0 1.7 0 0 Z " fill="#778396" transform="translate(202,133)"/>
<path d="M0 0 C1.98 0.495 1.98 0.495 4 1 C4 2.65 4 4.3 4 6 C3.34 5.34 2.68 4.68 2 4 C1.01 4.33 0.02 4.66 -1 5 C-0.67 3.35 -0.34 1.7 0 0 Z " fill="#415270" transform="translate(112,229)"/>
<path d="M0 0 C1.32 0.66 2.64 1.32 4 2 C3.01 3.485 3.01 3.485 2 5 C0.68 4.34 -0.64 3.68 -2 3 C-1.34 2.67 -0.68 2.34 0 2 C0 1.34 0 0.68 0 0 Z " fill="#39496C" transform="translate(67,210)"/>
<path d="M0 0 C1.65 0 3.3 0 5 0 C4.34 1.32 3.68 2.64 3 4 C2.01 4 1.02 4 0 4 C0 2.68 0 1.36 0 0 Z " fill="#747F94" transform="translate(53,156)"/>
<path d="M0 0 C0.99 0.33 1.98 0.66 3 1 C2.45276317 4.37462715 1.9451 6.08235 0 9 C-0.87890625 2.84765625 -0.87890625 2.84765625 -1 1 C-0.67 0.67 -0.34 0.34 0 0 Z " fill="#868FA0" transform="translate(156,122)"/>
<path d="M0 0 C0.99 0.33 1.98 0.66 3 1 C3 1.33 3 1.66 3 2 C1.02 2 -0.96 2 -3 2 C-2.01 1.34 -1.02 0.68 0 0 Z " fill="#FBFBFB" transform="translate(950,249)"/>
<path d="" fill="#FCFCFC" transform="translate(0,0)"/>
</svg>
