<?xml version="1.0" encoding="UTF-8"?>
<svg version="1.1" xmlns="http://www.w3.org/2000/svg" width="256" height="256">
<path d="M0 0 C1.91479014 -0.00542814 3.82957611 -0.01255467 5.74435425 -0.02124023 C10.91793539 -0.03939414 16.09119558 -0.03243891 21.26478195 -0.01972389 C26.69418922 -0.009555 32.1235701 -0.01900034 37.55297852 -0.02526855 C46.66850691 -0.03253365 55.78390542 -0.02298712 64.89941406 -0.00390625 C75.41901211 0.01786023 85.93829998 0.01080806 96.45789051 -0.01121187 C105.51046549 -0.02939829 114.56294742 -0.03190835 123.61553478 -0.0214572 C129.01320157 -0.01524009 134.41072285 -0.01433744 139.80838013 -0.02760315 C144.88438469 -0.03920826 149.95999164 -0.03105103 155.03595352 -0.00802612 C156.89222684 -0.00276387 158.74853395 -0.00420995 160.60479355 -0.01307678 C174.56003157 -0.07356115 185.22966023 0.91768556 195.70703125 11.09570312 C205.09128732 21.30313955 207.39470601 31.51123703 207.32177734 45.15234375 C207.32966278 46.98849495 207.32966278 46.98849495 207.33770752 48.86174011 C207.34858178 52.19042519 207.34612791 55.51854428 207.33657026 58.84719658 C207.32891718 62.34853693 207.33603482 65.84985488 207.34072876 69.35119629 C207.34617001 75.22847784 207.33903778 81.10564588 207.32470703 86.98291016 C207.30838359 93.75515226 207.31367326 100.5271233 207.33018625 107.29935884 C207.34384787 113.13833305 207.34569805 118.97722618 207.33787024 124.81621122 C207.33321929 128.29286859 207.33249711 131.76939901 207.34247971 135.24604797 C207.35284185 139.12507471 207.33843593 143.00380352 207.32177734 146.8828125 C207.32785004 148.01869308 207.33392273 149.15457367 207.34017944 150.32487488 C207.25801243 160.69733549 205.08747023 169.09740153 198.93359375 177.51757812 C198.33160156 178.34257812 197.72960937 179.16757813 197.109375 180.01757812 C194.78627753 182.68684632 192.55490446 184.33762958 189.55859375 186.20507812 C188.64335937 186.78644531 187.728125 187.3678125 186.78515625 187.96679688 C179.30578837 192.03434352 171.56192952 192.6701518 163.17375183 192.65129089 C162.42345288 192.65355645 161.67315393 192.65582201 160.90011865 192.65815622 C158.40239063 192.66445325 155.90471747 192.66366963 153.40698242 192.6628418 C151.60938955 192.66583597 149.81179732 192.6692391 148.01420593 192.67301941 C143.14220011 192.68183729 138.27021187 192.68419659 133.39819884 192.6848352 C130.35124705 192.68554695 127.3042997 192.68768364 124.25734901 192.69033241 C113.61874738 192.69957848 102.98015826 192.70366822 92.34155273 192.70288086 C82.43898982 192.70228025 72.53648142 192.71283068 62.63393229 192.72862452 C54.1199023 192.74171785 45.60589008 192.747064 37.0918501 192.74642545 C32.01220966 192.74617099 26.93261767 192.74899335 21.85298729 192.7596035 C17.07345533 192.76931468 12.29401787 192.769343 7.5144825 192.76208687 C5.76582577 192.76104478 4.01716306 192.76338147 2.26851654 192.76944733 C-12.8177877 192.81836779 -26.78271801 192.05917815 -38.47265625 181.30664062 C-47.23118664 171.47476092 -49.52217457 160.69015829 -49.45458984 147.90454102 C-49.4598468 146.67083267 -49.46510376 145.43712433 -49.47052002 144.16603088 C-49.48140688 140.80629818 -49.4789318 137.44712501 -49.46938276 134.08742452 C-49.46173825 130.5553818 -49.46884514 127.02336149 -49.47354126 123.49131775 C-49.47898568 117.56098182 -49.47184263 111.63075828 -49.45751953 105.70043945 C-49.44120302 98.86630296 -49.44647944 92.03243516 -49.46299875 85.19830519 C-49.47666028 79.30839635 -49.47851036 73.4185679 -49.47068274 67.52864832 C-49.46603077 64.02067731 -49.46531232 60.51283214 -49.47529221 57.00486946 C-49.48565389 53.08981196 -49.47124857 49.17504967 -49.45458984 45.26000977 C-49.46066254 44.1132074 -49.46673523 42.96640503 -49.47299194 41.78485107 C-49.37941402 29.86285666 -46.38560994 18.94764503 -37.83984375 10.25195312 C-26.258519 0.32510334 -14.53555009 -0.06943228 0 0 Z M-4.06640625 26.51757812 C-2.08640625 28.82757813 -0.10640625 31.13757813 1.93359375 33.51757812 C2.53365234 34.22205078 3.13371094 34.92652344 3.75195312 35.65234375 C8.08412556 40.68343261 12.69841125 45.36710372 17.43359375 50.01757812 C22.21240177 54.71089763 26.80514469 59.45749791 31.17382812 64.53515625 C34.26753381 68.02029639 37.60795853 71.25565239 40.93359375 74.51757812 C44.88964402 78.397842 48.77933989 82.27545461 52.39453125 86.47851562 C56.22762116 90.92907436 60.37047038 95.02844987 64.55859375 99.14257812 C69.264566 103.76627813 73.81538802 108.35761285 77.93359375 113.51757812 C81.25523246 112.41036522 81.92590148 111.61674896 84.08984375 108.98632812 C88.63016583 103.63523425 93.61395802 98.78677315 98.6171875 93.87304688 C102.65181865 89.8821911 106.47331113 85.80105804 110.17382812 81.5 C113.89751284 77.30517205 117.97014914 73.44340885 121.97265625 69.51757812 C125.24024677 66.28783615 128.40511708 63.03246187 131.40234375 59.54882812 C135.8591998 54.37442836 140.74805765 49.65507243 145.6171875 44.87304688 C151.48599052 39.06791984 156.97732432 33.12593736 161.93359375 26.51757812 C107.15359375 26.51757812 52.37359375 26.51757812 -4.06640625 26.51757812 Z M-23.06640625 46.51757812 C-23.06640625 79.18757813 -23.06640625 111.85757813 -23.06640625 145.51757812 C-17.41266465 140.70709987 -17.41266465 140.70709987 -12.06640625 135.64257812 C-11.16921875 134.74925781 -11.16921875 134.74925781 -10.25390625 133.83789062 C-8.39132594 131.86222508 -6.61833786 129.84804174 -4.84765625 127.79101562 C-0.28930904 122.55110318 4.66505157 117.73659361 9.6171875 112.87304688 C15.11472324 107.4351589 20.6311491 101.9712451 24.93359375 95.51757812 C24.39468506 94.98390625 23.85577637 94.45023438 23.30053711 93.90039062 C20.82133139 91.44218386 18.34619776 88.97991447 15.87109375 86.51757812 C15.02353516 85.67839844 14.17597656 84.83921875 13.30273438 83.97460938 C8.92080117 79.60959483 4.7108028 75.18379432 0.68286133 70.49169922 C-2.60910259 66.77658125 -6.16260684 63.31835246 -9.69140625 59.83007812 C-10.42875 59.09724609 -11.16609375 58.36441406 -11.92578125 57.609375 C-13.29911109 56.24465924 -14.67347822 54.88098577 -16.04931641 53.51879883 C-18.39491158 51.19165726 -20.73001966 48.85396471 -23.06640625 46.51757812 Z M177.6652832 48.76416016 C176.86417114 49.63596924 176.86417114 49.63596924 176.046875 50.52539062 C175.44488281 51.17572266 174.84289062 51.82605469 174.22265625 52.49609375 C173.57039063 53.20443359 172.918125 53.91277344 172.24609375 54.64257812 C167.07953657 60.21230595 161.83815095 65.67845496 156.43359375 71.01757812 C152.33460223 75.07105651 148.38899883 79.15964409 144.6640625 83.56445312 C140.96139716 87.74353364 136.9160038 91.60728415 132.93359375 95.51757812 C138.00564021 102.80051664 144.05602697 108.83942607 150.37109375 115.01757812 C152.39411097 117.00364966 154.41378775 118.99303242 156.4296875 120.98632812 C156.91395203 121.46509399 157.39821655 121.94385986 157.89715576 122.43713379 C161.2378394 125.76417847 164.38273076 129.20858471 167.44262695 132.79296875 C169.62503906 135.31737666 171.94523205 137.66148831 174.30859375 140.01757812 C175.16195312 140.87351562 176.0153125 141.72945313 176.89453125 142.61132812 C178.59012027 144.63139752 178.59012027 144.63139752 179.93359375 144.51757812 C179.93359375 112.50757813 179.93359375 80.49757813 179.93359375 47.51757812 C178.75606468 47.40074958 178.75606468 47.40074958 177.6652832 48.76416016 Z M42.93359375 115.51757812 C42.55251465 115.9289502 42.17143555 116.34032227 41.77880859 116.76416016 C34.21113412 124.91970297 26.56119259 132.95710347 18.65063477 140.78100586 C15.17770154 144.23007355 11.88765145 147.75890148 8.73046875 151.50195312 C5.79939794 154.78984995 2.63983757 157.8517695 -0.51245117 160.92651367 C-1.71419955 162.10636998 -2.89265479 163.30986641 -4.06640625 164.51757812 C-4.06640625 164.84757812 -4.06640625 165.17757812 -4.06640625 165.51757812 C50.71359375 165.51757812 105.49359375 165.51757812 161.93359375 165.51757812 C157.36218484 160.11465563 157.36218484 160.11465563 152.53125 155.05273438 C151.95052734 154.47974609 151.36980469 153.90675781 150.77148438 153.31640625 C149.59183984 152.16271649 148.41215262 151.00907036 147.23242188 149.85546875 C144.20820206 146.8714379 141.30737823 143.84386261 138.53515625 140.62304688 C134.64934478 136.12137094 130.47340551 131.94664138 126.24609375 127.76757812 C125.12750977 126.65576172 125.12750977 126.65576172 123.98632812 125.52148438 C122.60444592 124.14823123 121.22152812 122.77601869 119.8371582 121.40527344 C117.86370026 119.4482673 115.89761361 117.48405199 113.93359375 115.51757812 C106.43253966 122.84038564 106.43253966 122.84038564 99.37109375 130.58007812 C88.02658746 143.81991356 88.02658746 143.81991356 82.93359375 145.51757812 C77.23149113 145.88545571 74.77672115 145.69039646 69.93359375 142.51757812 C68.57173702 141.31973101 67.25103185 140.07367351 65.97265625 138.78710938 C64.89371094 137.70526367 64.89371094 137.70526367 63.79296875 136.6015625 C63.055625 135.85197266 62.31828125 135.10238281 61.55859375 134.33007812 C60.82898438 133.59982422 60.099375 132.86957031 59.34765625 132.1171875 C55.20071947 127.93692712 51.24080997 123.66348332 47.45458984 119.15307617 C45.83408184 117.28401753 45.83408184 117.28401753 42.93359375 115.51757812 Z " fill="#FFFFFF" transform="translate(49.06640625,31.482421875)"/>
</svg>
